<svg width="292" height="285" viewBox="0 0 292 285" fill="none" xmlns="http://www.w3.org/2000/svg">
<path d="M22.9327 237.572L17.7744 255.177L65.875 269.191L62.4341 280.942L14.3294 266.929L9.25619 284.264L-0.00123372 281.565L13.6754 234.877L22.9327 237.572Z" fill="#D4734A"/>
<path fill-rule="evenodd" clip-rule="evenodd" d="M45.1713 184.833C48.4635 183.943 52.0017 183.756 55.7824 184.271C59.5506 184.748 63.4781 186.009 67.5634 188.048L70.0962 189.312C74.1566 191.339 77.5247 193.709 80.2023 196.42C82.8802 199.13 84.8554 202.054 86.126 205.192C87.372 208.317 87.8957 211.57 87.6978 214.951C87.512 218.308 86.5757 221.672 84.8849 225.04C83.2065 228.384 81.0678 231.146 78.4727 233.329C75.8899 235.488 72.9654 237.022 69.6983 237.924C66.4062 238.813 62.8615 239.013 59.0686 238.524C55.2879 238.009 51.3674 236.736 47.3062 234.708L44.7735 233.445C40.688 231.405 37.3167 229.035 34.6632 226.337C31.9859 223.626 30.0141 220.702 28.7437 217.565C27.4854 214.403 26.9483 211.143 27.134 207.786C27.332 204.406 28.2692 201.044 29.9471 197.701C31.6379 194.333 33.7759 191.568 36.359 189.408C38.9545 187.225 41.8916 185.698 45.1713 184.833ZM54.0484 196.134C51.6382 195.572 49.4462 195.424 47.476 195.691C45.5064 195.959 43.7935 196.633 42.3371 197.706C40.8562 198.768 39.6481 200.226 38.7172 202.08C37.7866 203.935 37.3375 205.773 37.373 207.591C37.3966 209.372 37.8917 211.13 38.8565 212.863C39.8342 214.572 41.2721 216.221 43.1674 217.808C45.0628 219.396 47.4298 220.899 50.2673 222.316L52.8758 223.616C55.6884 225.021 58.3114 226.01 60.7454 226.585C63.1557 227.147 65.3611 227.302 67.3558 227.046C69.3253 226.778 71.0519 226.115 72.5328 225.054C74.014 223.993 75.2173 222.531 76.1484 220.676C77.0793 218.821 77.5281 216.984 77.4926 215.165C77.4567 213.348 76.9524 211.584 75.9753 209.875C74.973 208.154 73.5221 206.498 71.6264 204.911C69.7064 203.311 67.3399 201.808 64.5266 200.403L61.9221 199.103C59.0842 197.686 56.4586 196.697 54.0484 196.134Z" fill="#D4734A"/>
<path d="M131.556 154.144L123.994 163.839L77.6345 158.212L109.247 182.747L101.685 192.442L54.5243 155.84L62.0867 146.145L108.503 151.765L76.8602 127.207L84.3956 117.547L131.556 154.144Z" fill="#D4734A"/>
<path d="M137.734 80.5504L117.057 99.0078L126.851 109.927L144.473 94.2008L150.713 101.157L133.091 116.884L144.066 129.118L164.775 110.634L171.176 117.771L150.466 136.255L150.471 136.259L141.292 144.448L101.451 100.032L131.303 73.382L137.734 80.5504Z" fill="#D4734A"/>
<path d="M177.322 99.4568C178.975 98.2897 180.634 97.8379 182.297 98.1018C183.981 98.35 185.331 99.188 186.342 100.614C187.353 102.039 187.696 103.585 187.371 105.252C187.068 106.903 186.09 108.314 184.438 109.481C182.786 110.648 181.116 111.106 179.432 110.858C177.77 110.594 176.43 109.75 175.418 108.324C174.407 106.899 174.055 105.359 174.358 103.708C174.683 102.041 175.671 100.623 177.322 99.4568Z" fill="#D4734A"/>
<path d="M206.741 37.6035L183.371 50.444L191.033 64.3229L211.887 52.8623L216.522 61.2517L195.668 72.7124L207.553 94.2265L196.766 100.155L167.935 47.9512L202.084 29.1783L206.741 37.6035Z" fill="#D4734A"/>
<path d="M157.767 71.8896C159.419 70.7232 161.076 70.2712 162.738 70.5348C164.422 70.783 165.772 71.621 166.783 73.0466C167.794 74.4719 168.137 76.0179 167.812 77.6848C167.509 79.3364 166.531 80.747 164.879 81.914C163.227 83.0808 161.557 83.5389 159.873 83.291C158.21 83.0271 156.87 82.1828 155.859 80.7571C154.848 79.3318 154.495 77.7923 154.798 76.141C155.124 74.4737 156.114 73.0565 157.767 71.8896Z" fill="#D4734A"/>
<path d="M251.51 73.3738L240.153 78.015L217.508 22.8544L228.864 18.2132L251.51 73.3738Z" fill="#D4734A"/>
<path d="M291.309 9.281L273.571 14.1176L286.785 62.3374L274.947 65.5679L261.733 17.3481L244.276 22.1133L241.734 12.8324L288.766 0.000140792L291.309 9.281Z" fill="#D4734A"/>
</svg>
