<svg width="1279" height="701" viewBox="0 0 1279 701" fill="none" xmlns="http://www.w3.org/2000/svg">
<rect x="772" y="229" width="152" height="389" rx="10" fill="#C0C0C0"/>
<rect x="579" y="311" width="152" height="307" rx="10" fill="#C0C0C0"/>
<rect x="386" y="372" width="152" height="246" rx="10" fill="#C0C0C0"/>
<rect x="193" y="442" width="152" height="176" rx="10" fill="#C0C0C0"/>
<rect y="502" width="152" height="116" rx="10" fill="#C0C0C0"/>
<path d="M1142.6 688.148C1142.62 684.826 1143.51 682.066 1145.13 679.729H1146.47C1145.27 681.469 1144.16 685.02 1144.16 688.148C1144.16 691.277 1145.27 694.846 1146.47 696.586H1145.13C1143.51 694.23 1142.62 691.471 1142.6 688.148ZM1148.33 693L1148.31 691.84L1152.65 687.27C1154.17 685.67 1154.89 684.809 1154.89 683.631C1154.89 682.33 1153.78 681.469 1152.36 681.469C1150.84 681.469 1149.88 682.436 1149.88 683.859H1148.38C1148.37 681.609 1150.11 680.098 1152.41 680.098C1154.71 680.098 1156.36 681.645 1156.36 683.631C1156.36 685.055 1155.7 686.162 1153.45 688.482L1150.53 691.488V691.594H1156.59V693H1148.33ZM1163.06 693.176C1160.23 693.176 1158.61 690.803 1158.61 686.637C1158.61 682.506 1160.27 680.098 1163.06 680.098C1165.86 680.098 1167.51 682.506 1167.51 686.637C1167.51 690.803 1165.87 693.176 1163.06 693.176ZM1163.06 691.77C1164.89 691.77 1165.96 689.924 1165.96 686.637C1165.96 683.35 1164.89 681.469 1163.06 681.469C1161.23 681.469 1160.14 683.35 1160.14 686.637C1160.14 689.924 1161.21 691.77 1163.06 691.77ZM1169.62 693L1169.6 691.84L1173.94 687.27C1175.45 685.67 1176.17 684.809 1176.17 683.631C1176.17 682.33 1175.07 681.469 1173.64 681.469C1172.13 681.469 1171.16 682.436 1171.16 683.859H1169.67C1169.65 681.609 1171.39 680.098 1173.7 680.098C1176 680.098 1177.65 681.645 1177.65 683.631C1177.65 685.055 1176.98 686.162 1174.73 688.482L1171.81 691.488V691.594H1177.88V693H1169.62ZM1184.61 693.176C1182.4 693.141 1179.97 691.84 1179.97 687.129C1179.97 682.629 1181.82 680.098 1184.8 680.098C1187.04 680.098 1188.6 681.469 1188.94 683.473H1187.37C1187.07 682.348 1186.23 681.504 1184.8 681.504C1182.71 681.504 1181.46 683.297 1181.46 686.355H1181.62C1182.36 685.301 1183.52 684.668 1184.89 684.668C1187.16 684.668 1189.04 686.426 1189.04 688.887C1189.04 691.277 1187.28 693.193 1184.61 693.176ZM1184.61 691.787C1186.26 691.787 1187.49 690.486 1187.51 688.904C1187.49 687.34 1186.32 686.057 1184.65 686.057C1182.98 686.057 1181.69 687.41 1181.68 688.922C1181.68 690.416 1182.91 691.787 1184.61 691.787ZM1203.61 678.814V690.381H1202.22V684.967H1197.72V683.859H1202.22V681.979H1197.72V680.871H1202.22V678.814H1203.61ZM1204.04 692.93V694.09H1193.54V689.396H1194.93V692.93H1204.04ZM1192.98 679.939V686.883C1195.13 686.874 1197.21 686.76 1199.59 686.32L1199.73 687.463C1197.18 687.938 1195.05 688.043 1192.77 688.061H1191.59V679.939H1192.98ZM1215.44 693.176C1213.14 693.176 1211.4 691.752 1211.31 689.801H1212.84C1212.96 690.943 1214.07 691.787 1215.44 691.787C1217.1 691.787 1218.29 690.574 1218.29 688.975C1218.29 687.322 1217.04 686.109 1215.34 686.092C1214.27 686.074 1213.44 686.408 1212.96 687.234H1211.44L1212.33 680.273H1219.22V681.68H1213.65L1213.18 685.406H1213.3C1213.86 684.967 1214.72 684.668 1215.62 684.668C1218.04 684.668 1219.84 686.461 1219.84 688.939C1219.84 691.4 1217.97 693.176 1215.44 693.176ZM1234.36 678.814V688.025H1232.97V687.164H1229.8V686.25H1232.97V678.814H1234.36ZM1221.42 684.703C1224.44 684.721 1228.31 684.686 1231.69 684.316L1231.77 685.213C1230.24 685.433 1228.65 685.564 1227.1 685.635V688.078H1225.74V685.688C1224.27 685.74 1222.85 685.749 1221.58 685.74L1221.42 684.703ZM1234.36 688.588V691.822H1225.23V693.229H1234.87V694.248H1223.88V690.855H1232.99V689.59H1223.81V688.588H1234.36ZM1226.52 679.113C1228.84 679.113 1230.38 680.027 1230.4 681.469C1230.38 682.928 1228.84 683.807 1226.52 683.807C1224.16 683.807 1222.63 682.928 1222.63 681.469C1222.63 680.027 1224.16 679.113 1226.52 679.113ZM1226.52 680.08C1224.94 680.08 1223.92 680.625 1223.93 681.469C1223.92 682.295 1224.94 682.857 1226.52 682.857C1228.08 682.857 1229.1 682.295 1229.1 681.469C1229.1 680.625 1228.08 680.08 1226.52 680.08ZM1254.47 678.797V694.424H1253.08V678.797H1254.47ZM1249.84 680.502C1249.83 685.002 1247.73 688.975 1242.5 691.488L1241.74 690.363C1245.97 688.359 1248.12 685.362 1248.44 681.627H1242.46V680.502H1249.84ZM1265.12 680.748C1265.1 682.664 1267.74 684.229 1270.5 684.615L1269.95 685.705C1267.43 685.345 1265.08 684.079 1264.22 682.242C1263.38 684.079 1261.03 685.345 1258.49 685.705L1257.98 684.615C1260.74 684.229 1263.33 682.664 1263.33 680.748V680.713H1258.4V679.588H1270.08V680.713H1265.12V680.748ZM1271.39 686.848V687.99H1265.03V691.189H1263.66V687.99H1257.09V686.848H1271.39ZM1269.79 692.93V694.09H1258.91V689.625H1260.3V692.93H1269.79ZM1276.56 688.148C1276.54 691.471 1275.65 694.23 1274.03 696.586H1272.7C1273.89 694.846 1275 691.277 1275 688.148C1275 685.02 1273.89 681.469 1272.7 679.729H1274.03C1275.65 682.066 1276.54 684.826 1276.56 688.148Z" fill="#6D6D6D"/>
<path d="M1017.7 680.273V693H1016.1V681.926H1016.03L1012.93 683.982V682.383L1016.1 680.273H1017.7ZM1022.35 691.822L1020.98 696.604H1019.68L1020.65 691.822H1022.35ZM1029.49 693L1029.47 691.84L1033.81 687.27C1035.33 685.67 1036.05 684.809 1036.05 683.631C1036.05 682.33 1034.94 681.469 1033.52 681.469C1032 681.469 1031.04 682.436 1031.04 683.859H1029.54C1029.53 681.609 1031.27 680.098 1033.57 680.098C1035.87 680.098 1037.52 681.645 1037.52 683.631C1037.52 685.055 1036.86 686.162 1034.61 688.482L1031.69 691.488V691.594H1037.75V693H1029.49ZM1047.38 681.012C1047.37 683.104 1050.16 684.879 1052.89 685.283L1052.38 686.373C1049.93 685.96 1047.56 684.659 1046.61 682.77C1045.66 684.659 1043.28 685.96 1040.88 686.373L1040.34 685.283C1043.04 684.879 1045.84 683.104 1045.84 681.012V680.906H1040.83V679.781H1052.38V680.906H1047.38V681.012ZM1053.73 687.709V688.852H1047.26V694.424H1045.91V688.852H1039.49V687.709H1053.73ZM1060.25 683.895C1060.25 686.391 1061.89 688.957 1064.15 690.047L1063.35 691.119C1061.62 690.275 1060.26 688.57 1059.62 686.549C1058.93 688.72 1057.48 690.539 1055.7 691.4L1054.91 690.328C1057.19 689.256 1058.9 686.584 1058.92 683.895V682.646H1055.33V681.521H1058.9V679.096H1060.29V681.521H1063.8V682.646H1060.25V683.895ZM1067.14 678.797V685.213H1069.76V686.391H1067.14V694.424H1065.77V678.797H1067.14Z" fill="#6D6D6D"/>
<path d="M245.695 680.273V693H244.096V681.926H244.025L240.932 683.982V682.383L244.096 680.273H245.695ZM250.354 691.822L248.982 696.604H247.682L248.648 691.822H250.354ZM257.49 693L257.473 691.84L261.814 687.27C263.326 685.67 264.047 684.809 264.047 683.631C264.047 682.33 262.939 681.469 261.516 681.469C260.004 681.469 259.037 682.436 259.037 683.859H257.543C257.525 681.609 259.266 680.098 261.568 680.098C263.871 680.098 265.523 681.645 265.523 683.631C265.523 685.055 264.855 686.162 262.605 688.482L259.688 691.488V691.594H265.752V693H257.49ZM275.385 681.012C275.367 683.104 278.162 684.879 280.887 685.283L280.377 686.373C277.934 685.96 275.561 684.659 274.611 682.77C273.662 684.659 271.28 685.96 268.881 686.373L268.336 685.283C271.043 684.879 273.838 683.104 273.838 681.012V680.906H268.828V679.781H280.377V680.906H275.385V681.012ZM281.73 687.709V688.852H275.262V694.424H273.908V688.852H267.492V687.709H281.73ZM288.252 683.895C288.252 686.391 289.887 688.957 292.154 690.047L291.346 691.119C289.623 690.275 288.261 688.57 287.619 686.549C286.934 688.72 285.483 690.539 283.699 691.4L282.908 690.328C285.193 689.256 286.898 686.584 286.916 683.895V682.646H283.33V681.521H286.898V679.096H288.287V681.521H291.803V682.646H288.252V683.895ZM295.143 678.797V685.213H297.762V686.391H295.143V694.424H293.771V678.797H295.143Z" fill="#6D6D6D"/>
<path d="M631.695 680.273V693H630.096V681.926H630.025L626.932 683.982V682.383L630.096 680.273H631.695ZM636.354 691.822L634.982 696.604H633.682L634.648 691.822H636.354ZM643.49 693L643.473 691.84L647.814 687.27C649.326 685.67 650.047 684.809 650.047 683.631C650.047 682.33 648.939 681.469 647.516 681.469C646.004 681.469 645.037 682.436 645.037 683.859H643.543C643.525 681.609 645.266 680.098 647.568 680.098C649.871 680.098 651.523 681.645 651.523 683.631C651.523 685.055 650.855 686.162 648.605 688.482L645.688 691.488V691.594H651.752V693H643.49ZM661.385 681.012C661.367 683.104 664.162 684.879 666.887 685.283L666.377 686.373C663.934 685.96 661.561 684.659 660.611 682.77C659.662 684.659 657.28 685.96 654.881 686.373L654.336 685.283C657.043 684.879 659.838 683.104 659.838 681.012V680.906H654.828V679.781H666.377V680.906H661.385V681.012ZM667.73 687.709V688.852H661.262V694.424H659.908V688.852H653.492V687.709H667.73ZM674.252 683.895C674.252 686.391 675.887 688.957 678.154 690.047L677.346 691.119C675.623 690.275 674.261 688.57 673.619 686.549C672.934 688.72 671.483 690.539 669.699 691.4L668.908 690.328C671.193 689.256 672.898 686.584 672.916 683.895V682.646H669.33V681.521H672.898V679.096H674.287V681.521H677.803V682.646H674.252V683.895ZM681.143 678.797V685.213H683.762V686.391H681.143V694.424H679.771V678.797H681.143Z" fill="#6D6D6D"/>
<path d="M49.5898 693.176C47.0586 693.176 45.248 691.822 45.1602 689.801H46.7598C46.8477 691.014 48.0605 691.77 49.5723 691.77C51.2422 691.77 52.4727 690.855 52.4727 689.537C52.4727 688.148 51.3652 687.164 49.3789 687.164H48.3418V685.775H49.3789C50.9258 685.775 51.998 684.914 51.998 683.596C51.998 682.33 51.0664 681.469 49.625 681.469C48.2715 681.469 47.0234 682.225 46.9531 683.473H45.4238C45.5117 681.451 47.375 680.098 49.6426 680.098C52.0684 680.098 53.5449 681.68 53.5273 683.508C53.5449 684.949 52.7012 686.021 51.3652 686.391V686.479C53.0176 686.742 54.0371 687.92 54.0195 689.537C54.0371 691.629 52.1211 693.176 49.5898 693.176ZM57.9219 691.822L56.5508 696.604H55.25L56.2168 691.822H57.9219ZM64.7422 690.398V689.098L70.4727 680.273H72.4238V689.01H74.1992V690.398H72.4238V693H70.9121V690.398H64.7422ZM66.4473 689.01H70.9121V682.277H70.7539L66.4473 688.904V689.01ZM83.6211 681.012C83.6035 683.104 86.3984 684.879 89.123 685.283L88.6133 686.373C86.1699 685.96 83.7969 684.659 82.8477 682.77C81.8984 684.659 79.5166 685.96 77.1172 686.373L76.5723 685.283C79.2793 684.879 82.0742 683.104 82.0742 681.012V680.906H77.0645V679.781H88.6133V680.906H83.6211V681.012ZM89.9668 687.709V688.852H83.498V694.424H82.1445V688.852H75.7285V687.709H89.9668ZM96.4883 683.895C96.4883 686.391 98.123 688.957 100.391 690.047L99.582 691.119C97.8594 690.275 96.4971 688.57 95.8555 686.549C95.1699 688.72 93.7197 690.539 91.9355 691.4L91.1445 690.328C93.4297 689.256 95.1348 686.584 95.1523 683.895V682.646H91.5664V681.521H95.1348V679.096H96.5234V681.521H100.039V682.646H96.4883V683.895ZM103.379 678.797V685.213H105.998V686.391H103.379V694.424H102.008V678.797H103.379Z" fill="#6D6D6D"/>
<path d="M435.59 693.176C433.059 693.176 431.248 691.822 431.16 689.801H432.76C432.848 691.014 434.061 691.77 435.572 691.77C437.242 691.77 438.473 690.855 438.473 689.537C438.473 688.148 437.365 687.164 435.379 687.164H434.342V685.775H435.379C436.926 685.775 437.998 684.914 437.998 683.596C437.998 682.33 437.066 681.469 435.625 681.469C434.271 681.469 433.023 682.225 432.953 683.473H431.424C431.512 681.451 433.375 680.098 435.643 680.098C438.068 680.098 439.545 681.68 439.527 683.508C439.545 684.949 438.701 686.021 437.365 686.391V686.479C439.018 686.742 440.037 687.92 440.02 689.537C440.037 691.629 438.121 693.176 435.59 693.176ZM443.922 691.822L442.551 696.604H441.25L442.217 691.822H443.922ZM450.742 690.398V689.098L456.473 680.273H458.424V689.01H460.199V690.398H458.424V693H456.912V690.398H450.742ZM452.447 689.01H456.912V682.277H456.754L452.447 688.904V689.01ZM469.621 681.012C469.604 683.104 472.398 684.879 475.123 685.283L474.613 686.373C472.17 685.96 469.797 684.659 468.848 682.77C467.898 684.659 465.517 685.96 463.117 686.373L462.572 685.283C465.279 684.879 468.074 683.104 468.074 681.012V680.906H463.064V679.781H474.613V680.906H469.621V681.012ZM475.967 687.709V688.852H469.498V694.424H468.145V688.852H461.729V687.709H475.967ZM482.488 683.895C482.488 686.391 484.123 688.957 486.391 690.047L485.582 691.119C483.859 690.275 482.497 688.57 481.855 686.549C481.17 688.72 479.72 690.539 477.936 691.4L477.145 690.328C479.43 689.256 481.135 686.584 481.152 683.895V682.646H477.566V681.521H481.135V679.096H482.523V681.521H486.039V682.646H482.488V683.895ZM489.379 678.797V685.213H491.998V686.391H489.379V694.424H488.008V678.797H489.379Z" fill="#6D6D6D"/>
<path d="M821.59 693.176C819.059 693.176 817.248 691.822 817.16 689.801H818.76C818.848 691.014 820.061 691.77 821.572 691.77C823.242 691.77 824.473 690.855 824.473 689.537C824.473 688.148 823.365 687.164 821.379 687.164H820.342V685.775H821.379C822.926 685.775 823.998 684.914 823.998 683.596C823.998 682.33 823.066 681.469 821.625 681.469C820.271 681.469 819.023 682.225 818.953 683.473H817.424C817.512 681.451 819.375 680.098 821.643 680.098C824.068 680.098 825.545 681.68 825.527 683.508C825.545 684.949 824.701 686.021 823.365 686.391V686.479C825.018 686.742 826.037 687.92 826.02 689.537C826.037 691.629 824.121 693.176 821.59 693.176ZM829.922 691.822L828.551 696.604H827.25L828.217 691.822H829.922ZM836.742 690.398V689.098L842.473 680.273H844.424V689.01H846.199V690.398H844.424V693H842.912V690.398H836.742ZM838.447 689.01H842.912V682.277H842.754L838.447 688.904V689.01ZM855.621 681.012C855.604 683.104 858.398 684.879 861.123 685.283L860.613 686.373C858.17 685.96 855.797 684.659 854.848 682.77C853.898 684.659 851.517 685.96 849.117 686.373L848.572 685.283C851.279 684.879 854.074 683.104 854.074 681.012V680.906H849.064V679.781H860.613V680.906H855.621V681.012ZM861.967 687.709V688.852H855.498V694.424H854.145V688.852H847.729V687.709H861.967ZM868.488 683.895C868.488 686.391 870.123 688.957 872.391 690.047L871.582 691.119C869.859 690.275 868.497 688.57 867.855 686.549C867.17 688.72 865.72 690.539 863.936 691.4L863.145 690.328C865.43 689.256 867.135 686.584 867.152 683.895V682.646H863.566V681.521H867.135V679.096H868.523V681.521H872.039V682.646H868.488V683.895ZM875.379 678.797V685.213H877.998V686.391H875.379V694.424H874.008V678.797H875.379Z" fill="#6D6D6D"/>
<path d="M62.25 658V656.438L67.1523 651.496C68.6953 649.875 69.4766 648.977 69.4766 647.746C69.4766 646.359 68.3438 645.461 66.8594 645.461C65.2969 645.461 64.2812 646.457 64.2812 647.961H62.25C62.2305 645.383 64.2031 643.664 66.8984 643.664C69.6328 643.664 71.5078 645.383 71.5273 647.688C71.5078 649.27 70.7656 650.52 68.1094 653.137L65.2383 656.047V656.164H71.7617V658H62.25ZM88.0898 642.18V652.434H86.2344V651.594H82.8164V650.422H86.2344V642.18H88.0898ZM73.5 648.625C76.8789 648.645 81.1758 648.605 84.9453 648.195L85.043 649.387C83.3926 649.611 81.6836 649.748 80.0039 649.836V652.473H78.168V649.914C76.5859 649.953 75.082 649.963 73.7148 649.953L73.5 648.625ZM88.0898 653.02V656.789H78.0117V658.137H88.6172V659.484H76.1953V655.559H86.2539V654.309H76.1172V653.02H88.0898ZM79.1836 642.473C81.7812 642.473 83.5391 643.508 83.5586 645.109C83.5391 646.75 81.7812 647.727 79.1836 647.727C76.5273 647.727 74.7891 646.75 74.8086 645.109C74.7891 643.508 76.5273 642.473 79.1836 642.473ZM79.1836 643.723C77.5625 643.723 76.5469 644.27 76.5469 645.109C76.5469 645.949 77.5625 646.477 79.1836 646.477C80.7656 646.477 81.8008 645.949 81.8008 645.109C81.8008 644.27 80.7656 643.723 79.1836 643.723Z" fill="#121212"/>
<path d="M260.27 658.195C257.34 658.195 255.25 656.613 255.172 654.309H257.359C257.438 655.559 258.668 656.34 260.25 656.34C261.949 656.34 263.199 655.402 263.199 654.035C263.199 652.648 262.027 651.633 260.016 651.633H258.805V649.875H260.016C261.617 649.875 262.75 648.977 262.75 647.629C262.75 646.34 261.793 645.461 260.289 645.461C258.863 645.461 257.613 646.242 257.555 647.531H255.484C255.543 645.227 257.672 643.664 260.309 643.664C263.082 643.664 264.84 645.422 264.82 647.512C264.84 649.113 263.844 650.285 262.32 650.656V650.754C264.254 651.027 265.367 652.316 265.367 654.113C265.367 656.477 263.199 658.195 260.27 658.195ZM281.676 642.18V652.434H279.82V651.594H276.402V650.422H279.82V642.18H281.676ZM267.086 648.625C270.465 648.645 274.762 648.605 278.531 648.195L278.629 649.387C276.979 649.611 275.27 649.748 273.59 649.836V652.473H271.754V649.914C270.172 649.953 268.668 649.963 267.301 649.953L267.086 648.625ZM281.676 653.02V656.789H271.598V658.137H282.203V659.484H269.781V655.559H279.84V654.309H269.703V653.02H281.676ZM272.77 642.473C275.367 642.473 277.125 643.508 277.145 645.109C277.125 646.75 275.367 647.727 272.77 647.727C270.113 647.727 268.375 646.75 268.395 645.109C268.375 643.508 270.113 642.473 272.77 642.473ZM272.77 643.723C271.148 643.723 270.133 644.27 270.133 645.109C270.133 645.949 271.148 646.477 272.77 646.477C274.352 646.477 275.387 645.949 275.387 645.109C275.387 644.27 274.352 643.723 272.77 643.723Z" fill="#121212"/>
<path d="M453.27 658.195C450.34 658.195 448.25 656.613 448.172 654.309H450.359C450.438 655.559 451.668 656.34 453.25 656.34C454.949 656.34 456.199 655.402 456.199 654.035C456.199 652.648 455.027 651.633 453.016 651.633H451.805V649.875H453.016C454.617 649.875 455.75 648.977 455.75 647.629C455.75 646.34 454.793 645.461 453.289 645.461C451.863 645.461 450.613 646.242 450.555 647.531H448.484C448.543 645.227 450.672 643.664 453.309 643.664C456.082 643.664 457.84 645.422 457.82 647.512C457.84 649.113 456.844 650.285 455.32 650.656V650.754C457.254 651.027 458.367 652.316 458.367 654.113C458.367 656.477 456.199 658.195 453.27 658.195ZM474.676 642.18V652.434H472.82V651.594H469.402V650.422H472.82V642.18H474.676ZM460.086 648.625C463.465 648.645 467.762 648.605 471.531 648.195L471.629 649.387C469.979 649.611 468.27 649.748 466.59 649.836V652.473H464.754V649.914C463.172 649.953 461.668 649.963 460.301 649.953L460.086 648.625ZM474.676 653.02V656.789H464.598V658.137H475.203V659.484H462.781V655.559H472.84V654.309H462.703V653.02H474.676ZM465.77 642.473C468.367 642.473 470.125 643.508 470.145 645.109C470.125 646.75 468.367 647.727 465.77 647.727C463.113 647.727 461.375 646.75 461.395 645.109C461.375 643.508 463.113 642.473 465.77 642.473ZM465.77 643.723C464.148 643.723 463.133 644.27 463.133 645.109C463.133 645.949 464.148 646.477 465.77 646.477C467.352 646.477 468.387 645.949 468.387 645.109C468.387 644.27 467.352 643.723 465.77 643.723Z" fill="#121212"/>
<path d="M640.938 655.246V653.508L647.188 643.859H649.844V653.43H651.777V655.246H649.844V658H647.812V655.246H640.938ZM643.203 653.43H647.812V646.418H647.656L643.203 653.312V653.43ZM667.891 642.18V652.434H666.035V651.594H662.617V650.422H666.035V642.18H667.891ZM653.301 648.625C656.68 648.645 660.977 648.605 664.746 648.195L664.844 649.387C663.193 649.611 661.484 649.748 659.805 649.836V652.473H657.969V649.914C656.387 649.953 654.883 649.963 653.516 649.953L653.301 648.625ZM667.891 653.02V656.789H657.812V658.137H668.418V659.484H655.996V655.559H666.055V654.309H655.918V653.02H667.891ZM658.984 642.473C661.582 642.473 663.34 643.508 663.359 645.109C663.34 646.75 661.582 647.727 658.984 647.727C656.328 647.727 654.59 646.75 654.609 645.109C654.59 643.508 656.328 642.473 658.984 642.473ZM658.984 643.723C657.363 643.723 656.348 644.27 656.348 645.109C656.348 645.949 657.363 646.477 658.984 646.477C660.566 646.477 661.602 645.949 661.602 645.109C661.602 644.27 660.566 643.723 658.984 643.723Z" fill="#121212"/>
<path d="M833.938 655.246V653.508L840.188 643.859H842.844V653.43H844.777V655.246H842.844V658H840.812V655.246H833.938ZM836.203 653.43H840.812V646.418H840.656L836.203 653.312V653.43ZM860.891 642.18V652.434H859.035V651.594H855.617V650.422H859.035V642.18H860.891ZM846.301 648.625C849.68 648.645 853.977 648.605 857.746 648.195L857.844 649.387C856.193 649.611 854.484 649.748 852.805 649.836V652.473H850.969V649.914C849.387 649.953 847.883 649.963 846.516 649.953L846.301 648.625ZM860.891 653.02V656.789H850.812V658.137H861.418V659.484H848.996V655.559H859.055V654.309H848.918V653.02H860.891ZM851.984 642.473C854.582 642.473 856.34 643.508 856.359 645.109C856.34 646.75 854.582 647.727 851.984 647.727C849.328 647.727 847.59 646.75 847.609 645.109C847.59 643.508 849.328 642.473 851.984 642.473ZM851.984 643.723C850.363 643.723 849.348 644.27 849.348 645.109C849.348 645.949 850.363 646.477 851.984 646.477C853.566 646.477 854.602 645.949 854.602 645.109C854.602 644.27 853.566 643.723 851.984 643.723Z" fill="#121212"/>
<path d="M1032.05 658.195C1029.38 658.195 1027.37 656.555 1027.27 654.309H1029.36C1029.48 655.52 1030.63 656.398 1032.05 656.398C1033.77 656.398 1035 655.148 1035 653.469C1035 651.75 1033.73 650.5 1031.96 650.48C1030.82 650.48 1029.96 650.852 1029.48 651.73H1027.45L1028.36 643.859H1036.37V645.695H1030.14L1029.67 649.66H1029.81C1030.39 649.094 1031.39 648.703 1032.46 648.703C1035.12 648.703 1037.09 650.676 1037.09 653.41C1037.09 656.203 1035 658.195 1032.05 658.195ZM1053.32 642.18V652.434H1051.47V651.594H1048.05V650.422H1051.47V642.18H1053.32ZM1038.73 648.625C1042.11 648.645 1046.41 648.605 1050.18 648.195L1050.28 649.387C1048.63 649.611 1046.92 649.748 1045.24 649.836V652.473H1043.4V649.914C1041.82 649.953 1040.32 649.963 1038.95 649.953L1038.73 648.625ZM1053.32 653.02V656.789H1043.25V658.137H1053.85V659.484H1041.43V655.559H1051.49V654.309H1041.35V653.02H1053.32ZM1044.42 642.473C1047.02 642.473 1048.77 643.508 1048.79 645.109C1048.77 646.75 1047.02 647.727 1044.42 647.727C1041.76 647.727 1040.02 646.75 1040.04 645.109C1040.02 643.508 1041.76 642.473 1044.42 642.473ZM1044.42 643.723C1042.8 643.723 1041.78 644.27 1041.78 645.109C1041.78 645.949 1042.8 646.477 1044.42 646.477C1046 646.477 1047.04 645.949 1047.04 645.109C1047.04 644.27 1046 643.723 1044.42 643.723Z" fill="#121212"/>
<path d="M38.207 530.859V545H35.2578V533.652H35.1797L31.9375 535.684V533.086L35.4336 530.859H38.207ZM41.2539 542.5V540.176L47.2305 530.859H50.9219V540.137H52.7188V542.5H50.9219V545H48.1289V542.5H41.2539ZM44.2227 540.137H48.168V534.082H48.0312L44.2227 540.02V540.137ZM57.5234 543.555L55.8438 549.121H53.7734L54.75 543.555H57.5234ZM65.0234 545.195C61.4883 545.195 59.3398 542.559 59.3398 537.93C59.3398 533.301 61.4883 530.664 65.0234 530.664C68.5586 530.664 70.707 533.32 70.707 537.93C70.707 542.578 68.5586 545.195 65.0234 545.195ZM65.0234 542.773C66.6641 542.773 67.7188 541.191 67.6992 537.93C67.6992 534.707 66.6641 533.066 65.0234 533.066C63.3828 533.066 62.3477 534.707 62.3477 537.93C62.3281 541.191 63.3828 542.773 65.0234 542.773ZM78.2266 545.195C74.6914 545.195 72.543 542.559 72.543 537.93C72.543 533.301 74.6914 530.664 78.2266 530.664C81.7617 530.664 83.9102 533.32 83.9102 537.93C83.9102 542.578 81.7617 545.195 78.2266 545.195ZM78.2266 542.773C79.8672 542.773 80.9219 541.191 80.9023 537.93C80.9023 534.707 79.8672 533.066 78.2266 533.066C76.5859 533.066 75.5508 534.707 75.5508 537.93C75.5312 541.191 76.5859 542.773 78.2266 542.773ZM91.4297 545.195C87.8945 545.195 85.7461 542.559 85.7461 537.93C85.7461 533.301 87.8945 530.664 91.4297 530.664C94.9648 530.664 97.1133 533.32 97.1133 537.93C97.1133 542.578 94.9648 545.195 91.4297 545.195ZM91.4297 542.773C93.0703 542.773 94.125 541.191 94.1055 537.93C94.1055 534.707 93.0703 533.066 91.4297 533.066C89.7891 533.066 88.7539 534.707 88.7539 537.93C88.7344 541.191 89.7891 542.773 91.4297 542.773ZM118.148 529.043V542.031H115.668V536.23H112.484V534.18H115.668V529.043H118.148ZM112.641 530.352C112.641 535.117 109.613 538.633 104.418 540.254L103.402 538.281C107.084 537.129 109.457 535.01 109.926 532.383H104.32V530.352H112.641ZM118.598 544.492V546.484H106.43V540.723H108.969V544.492H118.598Z" fill="white"/>
<path d="M229.348 485.195C226.242 485.195 224.016 483.477 223.957 481.016H226.926C226.984 482.07 228 482.773 229.367 482.773C230.773 482.773 231.789 481.973 231.77 480.84C231.789 479.688 230.754 478.867 229.094 478.867H227.785V476.699H229.094C230.48 476.699 231.457 475.938 231.457 474.824C231.457 473.75 230.637 473.008 229.387 473.008C228.137 473.008 227.102 473.711 227.062 474.785H224.25C224.289 472.344 226.496 470.664 229.387 470.664C232.336 470.664 234.309 472.402 234.289 474.648C234.309 476.23 233.195 477.363 231.613 477.637V477.754C233.684 478.008 234.836 479.277 234.816 481.035C234.836 483.457 232.531 485.195 229.348 485.195ZM242.082 485.195C239.133 485.195 236.984 483.457 236.926 481.016H239.777C239.836 482.129 240.852 482.871 242.082 482.871C243.547 482.871 244.582 481.836 244.582 480.371C244.582 478.867 243.527 477.832 242.043 477.812C240.988 477.812 240.246 478.203 239.816 479.004H237.16L237.922 470.859H246.633V473.262H240.344L239.953 476.836H240.07C240.598 476.133 241.652 475.645 242.902 475.645C245.5 475.645 247.434 477.578 247.434 480.293C247.434 483.145 245.266 485.195 242.082 485.195ZM252.141 483.555L250.461 489.121H248.391L249.367 483.555H252.141ZM259.641 485.195C256.105 485.195 253.957 482.559 253.957 477.93C253.957 473.301 256.105 470.664 259.641 470.664C263.176 470.664 265.324 473.32 265.324 477.93C265.324 482.578 263.176 485.195 259.641 485.195ZM259.641 482.773C261.281 482.773 262.336 481.191 262.316 477.93C262.316 474.707 261.281 473.066 259.641 473.066C258 473.066 256.965 474.707 256.965 477.93C256.945 481.191 258 482.773 259.641 482.773ZM272.844 485.195C269.309 485.195 267.16 482.559 267.16 477.93C267.16 473.301 269.309 470.664 272.844 470.664C276.379 470.664 278.527 473.32 278.527 477.93C278.527 482.578 276.379 485.195 272.844 485.195ZM272.844 482.773C274.484 482.773 275.539 481.191 275.52 477.93C275.52 474.707 274.484 473.066 272.844 473.066C271.203 473.066 270.168 474.707 270.168 477.93C270.148 481.191 271.203 482.773 272.844 482.773ZM286.047 485.195C282.512 485.195 280.363 482.559 280.363 477.93C280.363 473.301 282.512 470.664 286.047 470.664C289.582 470.664 291.73 473.32 291.73 477.93C291.73 482.578 289.582 485.195 286.047 485.195ZM286.047 482.773C287.688 482.773 288.742 481.191 288.723 477.93C288.723 474.707 287.688 473.066 286.047 473.066C284.406 473.066 283.371 474.707 283.371 477.93C283.352 481.191 284.406 482.773 286.047 482.773ZM312.766 469.043V482.031H310.285V476.23H307.102V474.18H310.285V469.043H312.766ZM307.258 470.352C307.258 475.117 304.23 478.633 299.035 480.254L298.02 478.281C301.701 477.129 304.074 475.01 304.543 472.383H298.938V470.352H307.258ZM313.215 484.492V486.484H301.047V480.723H303.586V484.492H313.215Z" fill="white"/>
<path d="M422.582 415.195C419.652 415.176 416.879 413.438 416.879 408.262C416.879 403.496 419.164 400.664 422.699 400.664C425.551 400.664 427.484 402.461 427.777 404.785H424.887C424.652 403.789 423.832 403.184 422.699 403.184C420.785 403.184 419.77 404.922 419.75 407.695H419.887C420.531 406.445 421.938 405.703 423.5 405.703C426.039 405.703 427.934 407.617 427.934 410.273C427.934 413.145 425.766 415.215 422.582 415.195ZM422.562 412.871C424.008 412.871 425.082 411.777 425.082 410.352C425.082 408.945 424.047 407.832 422.602 407.832C421.156 407.832 420.062 408.965 420.043 410.352C420.062 411.738 421.117 412.871 422.562 412.871ZM435.199 415.195C432.094 415.195 429.867 413.477 429.809 411.016H432.777C432.836 412.07 433.852 412.773 435.219 412.773C436.625 412.773 437.641 411.973 437.621 410.84C437.641 409.688 436.605 408.867 434.945 408.867H433.637V406.699H434.945C436.332 406.699 437.309 405.938 437.309 404.824C437.309 403.75 436.488 403.008 435.238 403.008C433.988 403.008 432.953 403.711 432.914 404.785H430.102C430.141 402.344 432.348 400.664 435.238 400.664C438.188 400.664 440.16 402.402 440.141 404.648C440.16 406.23 439.047 407.363 437.465 407.637V407.754C439.535 408.008 440.688 409.277 440.668 411.035C440.688 413.457 438.383 415.195 435.199 415.195ZM445.492 413.555L443.812 419.121H441.742L442.719 413.555H445.492ZM452.992 415.195C449.457 415.195 447.309 412.559 447.309 407.93C447.309 403.301 449.457 400.664 452.992 400.664C456.527 400.664 458.676 403.32 458.676 407.93C458.676 412.578 456.527 415.195 452.992 415.195ZM452.992 412.773C454.633 412.773 455.688 411.191 455.668 407.93C455.668 404.707 454.633 403.066 452.992 403.066C451.352 403.066 450.316 404.707 450.316 407.93C450.297 411.191 451.352 412.773 452.992 412.773ZM466.195 415.195C462.66 415.195 460.512 412.559 460.512 407.93C460.512 403.301 462.66 400.664 466.195 400.664C469.73 400.664 471.879 403.32 471.879 407.93C471.879 412.578 469.73 415.195 466.195 415.195ZM466.195 412.773C467.836 412.773 468.891 411.191 468.871 407.93C468.871 404.707 467.836 403.066 466.195 403.066C464.555 403.066 463.52 404.707 463.52 407.93C463.5 411.191 464.555 412.773 466.195 412.773ZM479.398 415.195C475.863 415.195 473.715 412.559 473.715 407.93C473.715 403.301 475.863 400.664 479.398 400.664C482.934 400.664 485.082 403.32 485.082 407.93C485.082 412.578 482.934 415.195 479.398 415.195ZM479.398 412.773C481.039 412.773 482.094 411.191 482.074 407.93C482.074 404.707 481.039 403.066 479.398 403.066C477.758 403.066 476.723 404.707 476.723 407.93C476.703 411.191 477.758 412.773 479.398 412.773ZM506.117 399.043V412.031H503.637V406.23H500.453V404.18H503.637V399.043H506.117ZM500.609 400.352C500.609 405.117 497.582 408.633 492.387 410.254L491.371 408.281C495.053 407.129 497.426 405.01 497.895 402.383H492.289V400.352H500.609ZM506.566 414.492V416.484H494.398V410.723H496.938V414.492H506.566Z" fill="white"/>
<path d="M615.27 339.664C618.199 339.684 620.973 341.422 620.973 346.559C620.992 351.363 618.707 354.195 615.152 354.195C612.301 354.195 610.367 352.418 610.074 350.016H612.965C613.199 351.051 614.02 351.676 615.152 351.676C617.086 351.676 618.102 349.957 618.102 347.125H617.984C617.32 348.375 615.934 349.117 614.352 349.117C611.812 349.117 609.938 347.203 609.918 344.566C609.918 341.715 612.066 339.645 615.27 339.664ZM615.289 341.969C613.844 341.969 612.77 343.082 612.789 344.488C612.789 345.875 613.824 346.969 615.27 346.969C616.695 346.969 617.809 345.836 617.809 344.469C617.789 343.121 616.734 341.969 615.289 341.969ZM628.277 354.195C625.055 354.195 622.73 352.496 622.73 350.191C622.73 348.414 624.098 346.969 625.855 346.695V346.598C624.332 346.305 623.277 345.016 623.277 343.473C623.277 341.266 625.387 339.664 628.277 339.664C631.168 339.664 633.277 341.266 633.297 343.473C633.277 345.035 632.203 346.305 630.719 346.598V346.695C632.438 346.969 633.824 348.414 633.824 350.191C633.824 352.496 631.5 354.195 628.277 354.195ZM628.277 351.949C629.762 351.949 630.758 351.109 630.758 349.898C630.758 348.668 629.723 347.77 628.277 347.77C626.832 347.77 625.777 348.668 625.797 349.898C625.777 351.109 626.773 351.949 628.277 351.949ZM628.277 345.699C629.527 345.699 630.426 344.898 630.426 343.766C630.426 342.672 629.547 341.891 628.277 341.891C627.008 341.891 626.148 342.652 626.148 343.766C626.148 344.898 627.027 345.699 628.277 345.699ZM638.59 352.555L636.91 358.121H634.84L635.816 352.555H638.59ZM646.09 354.195C642.555 354.195 640.406 351.559 640.406 346.93C640.406 342.301 642.555 339.664 646.09 339.664C649.625 339.664 651.773 342.32 651.773 346.93C651.773 351.578 649.625 354.195 646.09 354.195ZM646.09 351.773C647.73 351.773 648.785 350.191 648.766 346.93C648.766 343.707 647.73 342.066 646.09 342.066C644.449 342.066 643.414 343.707 643.414 346.93C643.395 350.191 644.449 351.773 646.09 351.773ZM659.293 354.195C655.758 354.195 653.609 351.559 653.609 346.93C653.609 342.301 655.758 339.664 659.293 339.664C662.828 339.664 664.977 342.32 664.977 346.93C664.977 351.578 662.828 354.195 659.293 354.195ZM659.293 351.773C660.934 351.773 661.988 350.191 661.969 346.93C661.969 343.707 660.934 342.066 659.293 342.066C657.652 342.066 656.617 343.707 656.617 346.93C656.598 350.191 657.652 351.773 659.293 351.773ZM672.496 354.195C668.961 354.195 666.812 351.559 666.812 346.93C666.812 342.301 668.961 339.664 672.496 339.664C676.031 339.664 678.18 342.32 678.18 346.93C678.18 351.578 676.031 354.195 672.496 354.195ZM672.496 351.773C674.137 351.773 675.191 350.191 675.172 346.93C675.172 343.707 674.137 342.066 672.496 342.066C670.855 342.066 669.82 343.707 669.82 346.93C669.801 350.191 670.855 351.773 672.496 351.773ZM699.215 338.043V351.031H696.734V345.23H693.551V343.18H696.734V338.043H699.215ZM693.707 339.352C693.707 344.117 690.68 347.633 685.484 349.254L684.469 347.281C688.15 346.129 690.523 344.01 690.992 341.383H685.387V339.352H693.707ZM699.664 353.492V355.484H687.496V349.723H690.035V353.492H699.664Z" fill="white"/>
<path d="M806.207 257.859V272H803.258V260.652H803.18L799.938 262.684V260.086L803.434 257.859H806.207ZM814.723 272.195C811.617 272.195 809.391 270.477 809.332 268.016H812.301C812.359 269.07 813.375 269.773 814.742 269.773C816.148 269.773 817.164 268.973 817.145 267.84C817.164 266.688 816.129 265.867 814.469 265.867H813.16V263.699H814.469C815.855 263.699 816.832 262.938 816.832 261.824C816.832 260.75 816.012 260.008 814.762 260.008C813.512 260.008 812.477 260.711 812.438 261.785H809.625C809.664 259.344 811.871 257.664 814.762 257.664C817.711 257.664 819.684 259.402 819.664 261.648C819.684 263.23 818.57 264.363 816.988 264.637V264.754C819.059 265.008 820.211 266.277 820.191 268.035C820.211 270.457 817.906 272.195 814.723 272.195ZM828.355 257.859V272H825.406V260.652H825.328L822.086 262.684V260.086L825.582 257.859H828.355ZM834.059 270.555L832.379 276.121H830.309L831.285 270.555H834.059ZM841.559 272.195C838.023 272.195 835.875 269.559 835.875 264.93C835.875 260.301 838.023 257.664 841.559 257.664C845.094 257.664 847.242 260.32 847.242 264.93C847.242 269.578 845.094 272.195 841.559 272.195ZM841.559 269.773C843.199 269.773 844.254 268.191 844.234 264.93C844.234 261.707 843.199 260.066 841.559 260.066C839.918 260.066 838.883 261.707 838.883 264.93C838.863 268.191 839.918 269.773 841.559 269.773ZM854.762 272.195C851.227 272.195 849.078 269.559 849.078 264.93C849.078 260.301 851.227 257.664 854.762 257.664C858.297 257.664 860.445 260.32 860.445 264.93C860.445 269.578 858.297 272.195 854.762 272.195ZM854.762 269.773C856.402 269.773 857.457 268.191 857.438 264.93C857.438 261.707 856.402 260.066 854.762 260.066C853.121 260.066 852.086 261.707 852.086 264.93C852.066 268.191 853.121 269.773 854.762 269.773ZM867.965 272.195C864.43 272.195 862.281 269.559 862.281 264.93C862.281 260.301 864.43 257.664 867.965 257.664C871.5 257.664 873.648 260.32 873.648 264.93C873.648 269.578 871.5 272.195 867.965 272.195ZM867.965 269.773C869.605 269.773 870.66 268.191 870.641 264.93C870.641 261.707 869.605 260.066 867.965 260.066C866.324 260.066 865.289 261.707 865.289 264.93C865.27 268.191 866.324 269.773 867.965 269.773ZM894.684 256.043V269.031H892.203V263.23H889.02V261.18H892.203V256.043H894.684ZM889.176 257.352C889.176 262.117 886.148 265.633 880.953 267.254L879.938 265.281C883.619 264.129 885.992 262.01 886.461 259.383H880.855V257.352H889.176ZM895.133 271.492V273.484H882.965V267.723H885.504V271.492H895.133Z" fill="white"/>
<path d="M1034.09 2.84245C1037.95 -0.947483 1044.05 -0.947483 1047.91 2.84245L1142.89 95.9902C1149.41 102.376 1145 113.639 1135.99 113.64H1116.47V607.754C1116.47 613.413 1111.99 618 1106.47 618H974.529C969.009 618 964.534 613.413 964.534 607.754V113.64H946.016C937.004 113.639 932.594 102.376 939.105 95.9902L1034.09 2.84245Z" fill="url(#paint0_linear_3980_1874)"/>
<path d="M982.094 89.3906V87.2031H997.023V89.3906H990.816V107H988.328V89.3906H982.094ZM1016.25 97.1016C1016.25 103.363 1012.55 107.273 1007.5 107.273C1002.41 107.273 998.746 103.363 998.746 97.1016C998.746 90.8398 1002.41 86.9297 1007.5 86.9297C1012.55 86.9297 1016.25 90.8398 1016.25 97.1016ZM1013.87 97.1016C1013.87 91.9883 1011.08 89.2266 1007.5 89.2266C1003.91 89.2266 1001.12 91.9883 1001.12 97.1016C1001.12 102.215 1003.91 104.977 1007.5 104.977C1011.08 104.977 1013.87 102.215 1013.87 97.1016ZM1035.58 87.2031V107H1033.23L1022.51 91.5781H1022.32V107H1019.86V87.2031H1022.23L1032.95 102.652H1033.14V87.2031H1035.58ZM1039.95 107V87.2031H1051.96V89.3906H1042.41V96.0078H1051.33V98.168H1042.41V104.812H1052.09V107H1039.95ZM1057.21 104.375C1056.25 104.375 1055.43 103.582 1055.46 102.598C1055.43 101.641 1056.25 100.848 1057.21 100.848C1058.16 100.848 1058.96 101.641 1058.96 102.598C1058.96 103.582 1058.16 104.375 1057.21 104.375ZM1057.21 93.3828C1056.25 93.3828 1055.43 92.5898 1055.46 91.6055C1055.43 90.6484 1056.25 89.8555 1057.21 89.8555C1058.16 89.8555 1058.96 90.6484 1058.96 91.6055C1058.96 92.5898 1058.16 93.3828 1057.21 93.3828ZM1062.95 107V87.2031H1074.87V89.3906H1065.41V96.0078H1073.97V98.168H1065.41V107H1062.95ZM1081 87.2031V107H1078.54V87.2031H1081ZM1084.28 89.3906V87.2031H1099.21V89.3906H1093V107H1090.51V89.3906H1084.28Z" fill="white"/>
<path d="M997.807 134.859V149H994.857V137.652H994.779L991.537 139.684V137.086L995.033 134.859H997.807ZM1006.28 149.195C1003.33 149.195 1001.19 147.457 1001.13 145.016H1003.98C1004.04 146.129 1005.05 146.871 1006.28 146.871C1007.75 146.871 1008.78 145.836 1008.78 144.371C1008.78 142.867 1007.73 141.832 1006.24 141.812C1005.19 141.812 1004.45 142.203 1004.02 143.004H1001.36L1002.12 134.859H1010.83V137.262H1004.54L1004.15 140.836H1004.27C1004.8 140.133 1005.85 139.645 1007.1 139.645C1009.7 139.645 1011.63 141.578 1011.63 144.293C1011.63 147.145 1009.47 149.195 1006.28 149.195ZM1013.63 149L1013.61 146.871L1018.69 142.203C1020.01 140.934 1020.72 140.152 1020.72 139.039C1020.72 137.789 1019.76 137.008 1018.47 137.008C1017.14 137.008 1016.28 137.848 1016.28 139.195H1013.49C1013.47 136.422 1015.52 134.664 1018.51 134.664C1021.54 134.664 1023.55 136.383 1023.55 138.844C1023.55 140.445 1022.77 141.773 1019.86 144.41L1017.71 146.5V146.578H1023.74V149H1013.63ZM1029 147.555L1027.32 153.121H1025.25L1026.22 147.555H1029ZM1036.5 149.195C1032.96 149.195 1030.81 146.559 1030.81 141.93C1030.81 137.301 1032.96 134.664 1036.5 134.664C1040.03 134.664 1042.18 137.32 1042.18 141.93C1042.18 146.578 1040.03 149.195 1036.5 149.195ZM1036.5 146.773C1038.14 146.773 1039.19 145.191 1039.17 141.93C1039.17 138.707 1038.14 137.066 1036.5 137.066C1034.86 137.066 1033.82 138.707 1033.82 141.93C1033.8 145.191 1034.86 146.773 1036.5 146.773ZM1049.7 149.195C1046.17 149.195 1044.02 146.559 1044.02 141.93C1044.02 137.301 1046.17 134.664 1049.7 134.664C1053.24 134.664 1055.38 137.32 1055.38 141.93C1055.38 146.578 1053.24 149.195 1049.7 149.195ZM1049.7 146.773C1051.34 146.773 1052.4 145.191 1052.38 141.93C1052.38 138.707 1051.34 137.066 1049.7 137.066C1048.06 137.066 1047.03 138.707 1047.03 141.93C1047.01 145.191 1048.06 146.773 1049.7 146.773ZM1062.9 149.195C1059.37 149.195 1057.22 146.559 1057.22 141.93C1057.22 137.301 1059.37 134.664 1062.9 134.664C1066.44 134.664 1068.59 137.32 1068.59 141.93C1068.59 146.578 1066.44 149.195 1062.9 149.195ZM1062.9 146.773C1064.54 146.773 1065.6 145.191 1065.58 141.93C1065.58 138.707 1064.54 137.066 1062.9 137.066C1061.26 137.066 1060.23 138.707 1060.23 141.93C1060.21 145.191 1061.26 146.773 1062.9 146.773ZM1089.62 133.043V146.031H1087.14V140.23H1083.96V138.18H1087.14V133.043H1089.62ZM1084.12 134.352C1084.12 139.117 1081.09 142.633 1075.89 144.254L1074.88 142.281C1078.56 141.129 1080.93 139.01 1081.4 136.383H1075.79V134.352H1084.12ZM1090.07 148.492V150.484H1077.9V144.723H1080.44V148.492H1090.07Z" fill="white"/>
<path d="M909.918 86.9999C909.918 86.9999 911.071 90.531 912.224 92.5487C913.377 94.5664 915.106 97.0886 916.835 98.0976C918.564 99.1064 905.883 100.115 898.389 96.08C890.896 92.0445 889.551 89.354 888.014 86.9999H728.615C715.573 86.9999 705 77.1502 705 65C705 52.8497 715.573 43 728.615 43H915.385C928.427 43 939 52.8497 939 65C939 77.1502 928.427 86.9999 915.385 86.9999H909.918Z" fill="#BC8F76"/>
<path d="M739.521 61.1914C739.521 63.793 741.051 66.5352 743.617 67.6074L742.545 69.1543C740.664 68.3457 739.293 66.6758 738.572 64.6543C737.834 66.834 736.445 68.6621 734.582 69.541L733.457 68.0117C735.971 66.8516 737.535 63.8984 737.535 61.1914V59.8555H734.037V58.2383H743.002V59.8555H739.521V61.1914ZM746.746 56.6738V72.5645H744.777V56.6738H746.746ZM761.828 57.4473V58.6777C761.828 59.9082 761.828 61.3145 761.441 63.1953H763.604V64.7773H749.084V63.1953H759.473C759.842 61.4814 759.877 60.1719 759.877 59.0117H750.877V57.4473H761.828ZM761.811 66.623V72.3711H750.824V66.623H761.811ZM752.74 68.1523V70.7891H759.877V68.1523H752.74ZM782.131 56.6738V72.582H780.162V56.6738H782.131ZM773.57 57.834C775.961 57.834 777.701 60.0137 777.719 63.4414C777.701 66.9043 775.961 69.0664 773.57 69.0664C771.162 69.0664 769.422 66.9043 769.422 63.4414C769.422 60.0137 771.162 57.834 773.57 57.834ZM773.57 59.5918C772.217 59.5918 771.303 61.0156 771.303 63.4414C771.303 65.8848 772.217 67.3086 773.57 67.3086C774.906 67.3086 775.82 65.8848 775.82 63.4414C775.82 61.0156 774.906 59.5918 773.57 59.5918ZM796.984 57.6934C796.984 59.5742 799.182 61.5078 802.434 61.9648L801.695 63.5117C799.085 63.1074 797.002 61.8418 796 60.1367C794.972 61.8682 792.88 63.1426 790.27 63.5469L789.531 62.0176C792.766 61.5254 794.963 59.627 794.98 57.6934V57.0781H796.984V57.6934ZM803.242 64.5664V66.1484H797.107V69.0488H795.174V66.1484H788.723V64.5664H803.242ZM801.643 70.666V72.248H790.48V67.625H792.432V70.666H801.643ZM816.83 56.6738V61.2441H819.045V62.8789H816.83V68.1348H814.844V56.6738H816.83ZM812.506 57.8867C812.506 62.1055 809.764 65.1113 805.053 66.4824L804.244 64.9355C807.874 63.8896 810.036 61.9121 810.379 59.4863H804.912V57.8867H812.506ZM817.428 70.666V72.248H806.617V66.957H808.604V70.666H817.428ZM833.564 56.6738V72.5645H831.684V56.6738H833.564ZM830.295 56.9551V71.791H828.432V64.2324H826.92C826.735 67.3262 825.408 69.2422 823.439 69.2246C821.365 69.2422 820.012 67.0449 820.012 63.5469C820.012 60.0488 821.365 57.8867 823.439 57.8867C825.364 57.8867 826.674 59.6797 826.902 62.6504H828.432V56.9551H830.295ZM823.439 59.7324C822.438 59.7148 821.805 61.0684 821.822 63.5469C821.805 66.0254 822.438 67.3789 823.439 67.3613C824.494 67.3789 825.127 66.0254 825.127 63.5469C825.127 61.0684 824.494 59.7148 823.439 59.7324ZM848.312 63.8984V65.4453H843.602V69.084H849.93V70.6836H835.41V69.084H841.668V65.4453H837.168V57.8516H848.189V59.416H839.119V63.8984H848.312ZM864.414 57.8691V59.3105H861.162C861.285 60.2773 862.63 61.0947 864.766 61.332L864.115 62.7559C862.234 62.5098 860.881 61.7979 860.195 60.8047C859.501 61.8506 858.121 62.6064 856.205 62.8965L855.555 61.4902C857.726 61.2266 859.079 60.3389 859.211 59.3105H855.959V57.8691H859.211V56.6387H861.145V57.8691H864.414ZM861.145 62.2461V63.6172C862.454 63.5645 863.772 63.4678 864.994 63.3184L865.135 64.6543C861.848 65.1816 858.191 65.2168 855.414 65.2168L855.203 63.7402C856.407 63.7402 857.778 63.7314 859.211 63.6875V62.2461H861.145ZM867.824 66.1309V69.8926H859.193V70.9648H868.387V72.4238H857.242V68.5566H865.873V67.5547H857.207V66.1309H867.824ZM867.824 56.6738V60.207H869.969V61.8066H867.824V65.5156H865.873V56.6738H867.824ZM875.207 57.5703C876.49 57.5703 877.598 58.0449 878.354 58.8359H882.15V56.6738H884.102V66.0254H882.15V64.0039H878.354C877.598 64.7949 876.481 65.2607 875.207 65.252C872.816 65.2695 871.006 63.6523 871.006 61.4199C871.006 59.1699 872.816 57.5703 875.207 57.5703ZM875.207 59.2402C873.836 59.2402 872.869 60.084 872.869 61.4199C872.869 62.7207 873.836 63.5996 875.207 63.5996C876.525 63.5996 877.492 62.7207 877.51 61.4199C877.492 60.084 876.525 59.2402 875.207 59.2402ZM878.723 66.3594C882.062 66.3594 884.154 67.502 884.154 69.4531C884.154 71.4043 882.062 72.5469 878.723 72.5469C875.4 72.5469 873.309 71.4043 873.326 69.4531C873.309 67.502 875.4 66.3594 878.723 66.3594ZM878.723 67.8535C876.508 67.8535 875.225 68.416 875.242 69.4531C875.225 70.4551 876.508 71.0176 878.723 71.0176C880.973 71.0176 882.238 70.4551 882.238 69.4531C882.238 68.416 880.973 67.8535 878.723 67.8535ZM879.232 60.4004C879.32 60.7256 879.373 61.0596 879.373 61.4199C879.373 61.7715 879.32 62.1055 879.25 62.4219H882.15V60.4004H879.232ZM905.107 63.9688V65.5508H898.814V66.8691C901.662 67.0625 903.332 68.0469 903.35 69.6992C903.332 71.5273 901.275 72.5469 897.848 72.5469C894.385 72.5469 892.311 71.5273 892.311 69.6992C892.311 68.0469 893.998 67.0537 896.881 66.8691V65.5508H890.623V63.9688H905.107ZM897.848 68.3457C895.527 68.3633 894.279 68.8203 894.297 69.6992C894.279 70.5781 895.527 71.0527 897.848 71.0527C900.115 71.0527 901.381 70.5781 901.398 69.6992C901.381 68.8203 900.115 68.3633 897.848 68.3457ZM903.807 57.377V58.9414H899.236C899.544 60.251 901.442 61.4287 904.422 61.7012L903.736 63.248C900.854 62.958 898.709 61.8066 897.848 60.1895C896.986 61.7979 894.877 62.958 891.994 63.248L891.326 61.7012C894.244 61.4287 896.143 60.2334 896.477 58.9414H891.941V57.377H903.807ZM909.449 58.2734L909.256 67.2559H907.27L907.059 58.2734H909.449ZM908.271 71.1406C907.516 71.1406 906.9 70.5254 906.9 69.7695C906.9 69.0312 907.516 68.416 908.271 68.416C908.992 68.416 909.625 69.0312 909.625 69.7695C909.625 70.5254 908.992 71.1406 908.271 71.1406Z" fill="white"/>
<defs>
<linearGradient id="paint0_linear_3980_1874" x1="1041" y1="0" x2="1041" y2="618" gradientUnits="userSpaceOnUse">
<stop stop-color="#D4734A"/>
<stop offset="1" stop-color="#FFE4D9"/>
</linearGradient>
</defs>
</svg>
