<svg width="60" height="60" viewBox="0 0 60 60" fill="none" xmlns="http://www.w3.org/2000/svg">
<path fill-rule="evenodd" clip-rule="evenodd" d="M7.5 6.42857C7.21586 6.42857 6.94333 6.54146 6.74237 6.74237C6.54146 6.94333 6.42857 7.21586 6.42857 7.5V13.9286C6.42857 15.7038 4.98947 17.1429 3.21429 17.1429C1.43908 17.1429 0 15.7038 0 13.9286V7.5C0 5.51087 0.790178 3.60322 2.1967 2.1967C3.60322 0.790178 5.51087 0 7.5 0H13.9286C15.7038 0 17.1429 1.43908 17.1429 3.21429C17.1429 4.98947 15.7038 6.42857 13.9286 6.42857H7.5ZM33.2143 19.2857C33.2143 17.5105 31.7752 16.0714 30 16.0714C28.2248 16.0714 26.7857 17.5105 26.7857 19.2857V31.0714H23.5714C21.7962 31.0714 20.3571 32.5105 20.3571 34.2857C20.3571 36.0609 21.7962 37.5 23.5714 37.5H30C31.7752 37.5 33.2143 36.0609 33.2143 34.2857V19.2857ZM60 46.0714C60 44.2963 58.5609 42.8571 56.7857 42.8571C55.0106 42.8571 53.5714 44.2963 53.5714 46.0714V52.5C53.5714 52.7841 53.4587 53.0567 53.2577 53.2577C53.0567 53.4587 52.7841 53.5714 52.5 53.5714H46.0714C44.2963 53.5714 42.8571 55.0106 42.8571 56.7857C42.8571 58.5609 44.2963 60 46.0714 60H52.5C54.489 60 56.3966 59.2097 57.8031 57.8031C59.2097 56.3966 60 54.489 60 52.5V46.0714ZM6.42857 46.0714C6.42857 44.2963 4.98947 42.8571 3.21429 42.8571C1.43908 42.8571 0 44.2963 0 46.0714V52.5C0 54.489 0.790178 56.3966 2.1967 57.8031C3.60322 59.2097 5.51087 60 7.5 60H13.9286C15.7038 60 17.1429 58.5609 17.1429 56.7857C17.1429 55.0106 15.7038 53.5714 13.9286 53.5714H7.5C7.21586 53.5714 6.94333 53.4587 6.74237 53.2577C6.54146 53.0567 6.42857 52.7841 6.42857 52.5V46.0714ZM42.8571 3.21429C42.8571 1.43908 44.2963 0 46.0714 0H52.5C54.489 0 56.3966 0.790178 57.8031 2.1967C59.2097 3.60322 60 5.51087 60 7.5V13.9286C60 15.7038 58.5609 17.1429 56.7857 17.1429C55.0106 17.1429 53.5714 15.7038 53.5714 13.9286V7.5C53.5714 7.21586 53.4587 6.94333 53.2577 6.74237C53.0567 6.54146 52.7841 6.42857 52.5 6.42857H46.0714C44.2963 6.42857 42.8571 4.98947 42.8571 3.21429ZM21.4994 40.5267C20.2123 39.3041 18.1778 39.3564 16.9552 40.6434C15.7326 41.9305 15.7849 43.965 17.072 45.1877C20.5606 48.5014 25.1884 50.349 30 50.349C34.8116 50.349 39.4394 48.5014 42.9279 45.1877C44.2153 43.965 44.2676 41.9305 43.0449 40.6434C41.8222 39.3564 39.7877 39.3041 38.5006 40.5267C36.2067 42.7056 33.1638 43.9204 30 43.9204C26.8362 43.9204 23.7933 42.7056 21.4994 40.5267ZM21.4286 19.2857C21.4286 21.6526 19.5098 23.5714 17.1429 23.5714C14.7759 23.5714 12.8571 21.6526 12.8571 19.2857C12.8571 16.9188 14.7759 15 17.1429 15C19.5098 15 21.4286 16.9188 21.4286 19.2857ZM42.8571 23.5714C45.2241 23.5714 47.1429 21.6526 47.1429 19.2857C47.1429 16.9188 45.2241 15 42.8571 15C40.4902 15 38.5714 16.9188 38.5714 19.2857C38.5714 21.6526 40.4902 23.5714 42.8571 23.5714Z" fill="#D4734A"/>
</svg>
