<svg width="45" height="45" viewBox="0 0 45 45" fill="none" xmlns="http://www.w3.org/2000/svg">
<path fill-rule="evenodd" clip-rule="evenodd" d="M11.6619 11.6619C12.2111 11.1127 13.1014 11.1127 13.6506 11.6619L33.3381 31.3494C33.8873 31.8986 33.8873 32.7889 33.3381 33.3381C32.7889 33.8873 31.8986 33.8873 31.3494 33.3381L11.6619 13.6506C11.1127 13.1014 11.1127 12.2111 11.6619 11.6619Z" fill="#21272A"/>
<path fill-rule="evenodd" clip-rule="evenodd" d="M33.3381 11.6619C33.8873 12.2111 33.8873 13.1014 33.3381 13.6506L13.6506 33.3381C13.1014 33.8873 12.2111 33.8873 11.6619 33.3381C11.1127 32.7889 11.1127 31.8986 11.6619 31.3494L31.3494 11.6619C31.8986 11.1127 32.7889 11.1127 33.3381 11.6619Z" fill="#21272A"/>
</svg>
