<svg width="140" height="140" viewBox="0 0 140 140" fill="none" xmlns="http://www.w3.org/2000/svg">
<path opacity="0.3" d="M40.8333 23.334H93.3333V105.001H40.8333V23.334Z" fill="#F8F5F0"/>
<path d="M90.4167 5.83398H43.7501C39.8823 5.83398 36.173 7.37044 33.4381 10.1053C30.7032 12.8402 29.1667 16.5496 29.1667 20.4173V119.584C29.1667 123.452 30.7032 127.161 33.4381 129.896C36.173 132.631 39.8823 134.167 43.7501 134.167H90.4167C94.2845 134.167 97.9938 132.631 100.729 129.896C103.464 127.161 105 123.452 105 119.584V20.4173C105 16.5496 103.464 12.8402 100.729 10.1053C97.9938 7.37044 94.2845 5.83398 90.4167 5.83398ZM67.0834 128.334C62.2417 128.334 58.3334 124.426 58.3334 119.584C58.3334 114.742 62.2417 110.834 67.0834 110.834C71.9251 110.834 75.8334 114.742 75.8334 119.584C75.8334 124.426 71.9251 128.334 67.0834 128.334ZM93.3334 105.001H40.8334V23.334H93.3334V105.001Z" fill="#D4734A"/>
</svg>
