<svg width="60" height="54" viewBox="0 0 60 54" fill="none" xmlns="http://www.w3.org/2000/svg">
<path fill-rule="evenodd" clip-rule="evenodd" d="M34.2855 12.96C34.2855 20.1176 28.5292 25.9201 21.4284 25.9201C14.3277 25.9201 8.57137 20.1176 8.57137 12.96C8.57137 5.80242 14.3277 0 21.4284 0C28.5292 0 34.2855 5.80242 34.2855 12.96ZM21.4284 30.2399C9.59385 30.2399 0 39.9107 0 51.84C0 53.0328 0.959385 54 2.14284 54H40.714C41.8974 54 42.8568 53.0328 42.8568 51.84C42.8568 39.9107 33.263 30.2399 21.4284 30.2399ZM57.8572 54H47.9037C48.1059 53.3157 48.2144 52.5904 48.2144 51.84C48.2144 43.0224 44.0213 35.1923 37.5354 30.2647C37.8787 30.2483 38.2241 30.2399 38.5715 30.2399C50.4061 30.2399 60 39.9107 60 51.84C60 53.0328 59.0404 54 57.8572 54ZM38.5715 25.9201C37.2784 25.9201 36.0299 25.7276 34.8526 25.3696C37.8272 22.1018 39.6429 17.7447 39.6429 12.96C39.6429 8.1754 37.8272 3.81824 34.8526 0.550412C36.0299 0.192413 37.2784 0 38.5715 0C45.6721 0 51.4286 5.80242 51.4286 12.96C51.4286 20.1176 45.6721 25.9201 38.5715 25.9201Z" fill="#D4734A"/>
</svg>
