<svg width="140" height="140" viewBox="0 0 140 140" fill="none" xmlns="http://www.w3.org/2000/svg">
<path d="M96.25 81.6667H102.083V72.9167H110.833V67.0833H102.083V58.3333H96.25V67.0833H87.5V72.9167H96.25V81.6667ZM64.1667 87.5H72.9167V74.375L83.125 87.5H93.3333L80.2083 70L93.3333 52.5H83.125L72.9167 65.625V52.5H64.1667V87.5ZM35 87.5H52.5C54.1528 87.5 55.5392 86.94 56.6592 85.82C57.7792 84.7 58.3372 83.3156 58.3333 81.6667V72.9167C58.3333 71.2639 57.7733 69.8794 56.6533 68.7633C55.5333 67.6472 54.1489 67.0872 52.5 67.0833H43.75V61.25H58.3333V52.5H35V72.9167H49.5833V78.75H35V87.5ZM29.1667 122.5C25.9583 122.5 23.2128 121.359 20.93 119.076C18.6472 116.793 17.5039 114.046 17.5 110.833V29.1667C17.5 25.9583 18.6433 23.2128 20.93 20.93C23.2167 18.6472 25.9622 17.5039 29.1667 17.5H110.833C114.042 17.5 116.789 18.6433 119.076 20.93C121.363 23.2167 122.504 25.9622 122.5 29.1667V110.833C122.5 114.042 121.359 116.789 119.076 119.076C116.793 121.363 114.046 122.504 110.833 122.5H29.1667Z" fill="#D4734A"/>
</svg>
