<svg width="30" height="30" viewBox="0 0 30 30" fill="none" xmlns="http://www.w3.org/2000/svg">
<path d="M3.75 13.75C3.75 9.03625 3.75 6.67875 5.215 5.215C6.68 3.75125 9.03625 3.75 13.75 3.75H16.25C20.9637 3.75 23.3212 3.75 24.785 5.215C26.2487 6.68 26.25 9.03625 26.25 13.75V16.25C26.25 20.9637 26.25 23.3212 24.785 24.785C23.32 26.2487 20.9637 26.25 16.25 26.25H13.75C9.03625 26.25 6.67875 26.25 5.215 24.785C3.75125 23.32 3.75 20.9637 3.75 16.25V13.75Z" stroke="white" stroke-width="2"/>
<path d="M20.625 11.25C21.6605 11.25 22.5 10.4105 22.5 9.375C22.5 8.33947 21.6605 7.5 20.625 7.5C19.5895 7.5 18.75 8.33947 18.75 9.375C18.75 10.4105 19.5895 11.25 20.625 11.25Z" fill="white"/>
<path d="M15 18.75C17.0711 18.75 18.75 17.0711 18.75 15C18.75 12.9289 17.0711 11.25 15 11.25C12.9289 11.25 11.25 12.9289 11.25 15C11.25 17.0711 12.9289 18.75 15 18.75Z" stroke="white" stroke-width="2"/>
</svg>
