<svg width="26" height="26" viewBox="0 0 26 26" fill="none" xmlns="http://www.w3.org/2000/svg">
<g clip-path="url(#clip0_3819_4330)">
<path d="M23.8073 26H2.19483C0.975 26 0 25.025 0 23.8073V2.19483C0 0.975 0.975 0 2.19375 0H23.8875C25.025 0 26 0.975 26 2.19375V23.8063C26 25.025 25.025 26 23.8073 26ZM13 4.30625H9.75C8.30623 4.30625 6.92159 4.87979 5.90069 5.90069C4.87979 6.92159 4.30625 8.30623 4.30625 9.75V16.25C4.30654 17.6936 4.8802 19.0779 5.90107 20.0986C6.92194 21.1193 8.30642 21.6927 9.75 21.6927H16.25C17.6934 21.6924 19.0776 21.1189 20.0982 20.0982C21.1189 19.0776 21.6924 17.6934 21.6927 16.25V11.9438C21.6927 11.2937 21.2052 10.8063 20.5552 10.8063H19.5C19.2212 10.801 18.9553 10.6879 18.7582 10.4907C18.561 10.2936 18.4479 10.0277 18.4427 9.74892C18.4428 9.03403 18.3021 8.32612 18.0287 7.6656C17.7553 7.00508 17.3544 6.40489 16.849 5.89929C16.3436 5.39369 15.7436 4.99258 15.0832 4.71888C14.4227 4.44517 13.7149 4.30423 13 4.30408V4.30625ZM16.3302 17.3063H9.75C9.18125 17.3063 8.69375 16.8188 8.69375 16.25C8.69375 15.6813 9.18125 15.1927 9.75 15.1927H16.3302C16.9 15.1927 17.3886 15.6802 17.3886 16.25C17.3886 16.8198 16.9011 17.3073 16.3323 17.3073L16.3302 17.3063ZM13.5677 8.69375C14.1386 8.69375 14.625 9.18125 14.625 9.75C14.625 10.3188 14.1375 10.8063 13.5688 10.8063H9.66875C9.1 10.8063 8.61142 10.3188 8.61142 9.75C8.61142 9.18125 9.09892 8.69375 9.66767 8.69375H13.5677Z" fill="white"/>
</g>
<defs>
<clipPath id="clip0_3819_4330">
<rect width="26" height="26" fill="white"/>
</clipPath>
</defs>
</svg>
