<svg width="24" height="24" viewBox="0 0 24 24" fill="none" xmlns="http://www.w3.org/2000/svg">
<path d="M3 11C3 7.229 3 5.343 4.172 4.172C5.344 3.001 7.229 3 11 3H13C16.771 3 18.657 3 19.828 4.172C20.999 5.344 21 7.229 21 11V13C21 16.771 21 18.657 19.828 19.828C18.656 20.999 16.771 21 13 21H11C7.229 21 5.343 21 4.172 19.828C3.001 18.656 3 16.771 3 13V11Z" fill="white"/>
<path d="M16.5 6.5C17.0523 6.5 17.5 6.94772 17.5 7.5C17.5 8.05228 17.0523 8.5 16.5 8.5C15.9477 8.5 15.5 8.05228 15.5 7.5C15.5 6.94772 15.9477 6.5 16.5 6.5Z" stroke="#505050"/>
<path d="M12 15.5C13.933 15.5 15.5 13.933 15.5 12C15.5 10.067 13.933 8.5 12 8.5C10.067 8.5 8.5 10.067 8.5 12C8.5 13.933 10.067 15.5 12 15.5Z" stroke="#505050"/>
</svg>
