<svg width="30" height="30" viewBox="0 0 30 30" fill="none" xmlns="http://www.w3.org/2000/svg">
<path d="M15 3.11719C22.4578 3.11719 28.5 7.88437 28.5 13.7625C28.5 19.6406 22.4578 24.4078 15 24.4078C14.1797 24.4078 13.3781 24.3516 12.6 24.2391C11.8219 24.7875 7.32187 27.9469 6.89531 28.0078C6.89531 28.0078 6.72187 28.0734 6.57187 27.9891C6.42187 27.9047 6.45 27.675 6.45 27.675C6.49687 27.3656 7.62187 23.4937 7.82812 22.7766C4.02656 20.8969 1.5 17.5594 1.5 13.7578C1.5 7.87969 7.54219 3.11719 15 3.11719ZM5.54062 10.5797C5.11875 10.5797 4.77656 10.9219 4.77656 11.3437C4.77656 11.7656 5.11875 12.1078 5.54062 12.1078H6.75469V16.7344C6.75469 17.1469 7.10625 17.4797 7.53281 17.4797C7.95937 17.4797 8.31094 17.1469 8.31094 16.7344V12.1078H9.525C9.94687 12.1078 10.2891 11.7656 10.2891 11.3437C10.2891 10.9219 9.94687 10.5797 9.525 10.5797H5.53594H5.54062ZM12.1406 10.5797C11.6344 10.5891 11.2359 10.9734 11.1047 11.3484L9.24375 16.2516C9.00937 16.9875 9.21562 17.2594 9.42656 17.3578C9.57656 17.4281 9.75 17.4656 9.92344 17.4656C10.2469 17.4656 10.4953 17.3344 10.5703 17.1234L10.9547 16.1109H13.3312L13.7156 17.1187C13.7906 17.3297 14.0391 17.4609 14.3625 17.4609C14.5359 17.4609 14.7047 17.4234 14.8594 17.3531C15.075 17.2547 15.2812 16.9828 15.0422 16.2469L13.1812 11.3484C13.05 10.9734 12.6516 10.5891 12.1406 10.5797ZM20.6203 10.5797C20.1891 10.5797 19.8422 10.9312 19.8422 11.3578V16.6875C19.8422 17.1187 20.1937 17.4656 20.6203 17.4656C21.0469 17.4656 21.3984 17.1141 21.3984 16.6875V14.9906L21.6703 14.7187L23.4937 17.1375C23.6437 17.3344 23.8687 17.4469 24.1172 17.4469C24.2859 17.4469 24.45 17.3953 24.5859 17.2922C24.75 17.1656 24.8578 16.9828 24.8859 16.7766C24.9141 16.5703 24.8625 16.3641 24.7359 16.2L22.8187 13.6594L24.5953 11.8875C24.7172 11.7656 24.7781 11.5969 24.7687 11.4141C24.7594 11.2312 24.675 11.0578 24.5391 10.9219C24.3937 10.7766 24.1969 10.6922 24.0047 10.6922C23.8359 10.6922 23.6859 10.7531 23.5734 10.8656L21.4031 13.0406V11.3672C21.4031 10.9359 21.0516 10.5891 20.625 10.5891L20.6203 10.5797ZM16.3406 10.5797C15.9047 10.5797 15.5484 10.9312 15.5484 11.3578V16.6453C15.5484 17.0391 15.8812 17.3578 16.2937 17.3625H18.7922C19.2047 17.3625 19.5375 17.0391 19.5375 16.6453C19.5375 16.2516 19.2 15.9328 18.7922 15.9328H17.1375V11.3578C17.1375 10.9266 16.7812 10.5797 16.3406 10.5797ZM12.9187 14.7328H11.3625L12.1406 12.525L12.9187 14.7328Z" fill="white"/>
</svg>
