<svg width="30" height="30" viewBox="0 0 30 30" fill="none" xmlns="http://www.w3.org/2000/svg">
<path d="M3.75 14.2105C2.7 14.2105 1.8125 13.8289 1.0875 13.0658C0.3625 12.3026 0 11.3684 0 10.2632C0 9.15789 0.3625 8.22368 1.0875 7.46053C1.8125 6.69737 2.7 6.31579 3.75 6.31579C4.8 6.31579 5.6875 6.69737 6.4125 7.46053C7.1375 8.22368 7.5 9.15789 7.5 10.2632C7.5 11.3684 7.1375 12.3026 6.4125 13.0658C5.6875 13.8289 4.8 14.2105 3.75 14.2105ZM7.8375 6.75C7.1125 5.98684 6.75 5.05263 6.75 3.94737C6.75 2.84211 7.1125 1.90789 7.8375 1.14474C8.5625 0.381579 9.45 0 10.5 0C11.55 0 12.4375 0.381579 13.1625 1.14474C13.8875 1.90789 14.25 2.84211 14.25 3.94737C14.25 5.05263 13.8875 5.98684 13.1625 6.75C12.4375 7.51316 11.55 7.89474 10.5 7.89474C9.45 7.89474 8.5625 7.51316 7.8375 6.75ZM16.8375 6.75C16.1125 5.98684 15.75 5.05263 15.75 3.94737C15.75 2.84211 16.1125 1.90789 16.8375 1.14474C17.5625 0.381579 18.45 0 19.5 0C20.55 0 21.4375 0.381579 22.1625 1.14474C22.8875 1.90789 23.25 2.84211 23.25 3.94737C23.25 5.05263 22.8875 5.98684 22.1625 6.75C21.4375 7.51316 20.55 7.89474 19.5 7.89474C18.45 7.89474 17.5625 7.51316 16.8375 6.75ZM26.25 14.2105C25.2 14.2105 24.3125 13.8289 23.5875 13.0658C22.8625 12.3026 22.5 11.3684 22.5 10.2632C22.5 9.15789 22.8625 8.22368 23.5875 7.46053C24.3125 6.69737 25.2 6.31579 26.25 6.31579C27.3 6.31579 28.1875 6.69737 28.9125 7.46053C29.6375 8.22368 30 9.15789 30 10.2632C30 11.3684 29.6375 12.3026 28.9125 13.0658C28.1875 13.8289 27.3 14.2105 26.25 14.2105ZM6.975 30C5.85 30 4.90625 29.5461 4.14375 28.6382C3.38125 27.7303 3 26.6579 3 25.4211C3 24.0526 3.44375 22.8553 4.33125 21.8289C5.21875 20.8026 6.1 19.7895 6.975 18.7895C7.7 17.9737 8.325 17.0855 8.85 16.125C9.375 15.1645 10 14.2632 10.725 13.4211C11.275 12.7368 11.9125 12.1711 12.6375 11.7237C13.3625 11.2763 14.15 11.0526 15 11.0526C15.85 11.0526 16.6375 11.2632 17.3625 11.6842C18.0875 12.1053 18.725 12.6579 19.275 13.3421C19.975 14.1842 20.5938 15.0921 21.1313 16.0658C21.6688 17.0395 22.3 17.9474 23.025 18.7895C23.9 19.7895 24.7813 20.8026 25.6688 21.8289C26.5563 22.8553 27 24.0526 27 25.4211C27 26.6579 26.6188 27.7303 25.8563 28.6382C25.0938 29.5461 24.15 30 23.025 30C21.675 30 20.3375 29.8816 19.0125 29.6447C17.6875 29.4079 16.35 29.2895 15 29.2895C13.65 29.2895 12.3125 29.4079 10.9875 29.6447C9.6625 29.8816 8.325 30 6.975 30Z" fill="white"/>
</svg>
