<svg width="30" height="30" viewBox="0 0 30 30" fill="none" xmlns="http://www.w3.org/2000/svg">
<path d="M2.21053 30L0 27.7895L11.8816 15.8684L4.73684 14.0921L12.5526 9.23684L11.8816 0L18.9474 5.96053L27.4737 2.48684L24.0395 11.0526L30 18.0789L20.7632 17.4474L15.8684 25.2632L14.0921 18.1184L2.21053 30ZM3.15789 9.47368L0 6.31579L3.15789 3.15789L6.31579 6.31579L3.15789 9.47368ZM17.1711 17.25L19.0658 14.1316L22.7368 14.4079L20.3684 11.6053L21.75 8.21053L18.3553 9.5921L15.5526 7.26316L15.8289 10.8947L12.7105 12.8289L16.2632 13.6974L17.1711 17.25ZM23.6842 30L20.5263 26.8421L23.6842 23.6842L26.8421 26.8421L23.6842 30Z" fill="white"/>
</svg>
