<svg width="38" height="38" viewBox="0 0 38 38" fill="none" xmlns="http://www.w3.org/2000/svg">
<path d="M6.33366 34.8327C5.46283 34.8327 4.7176 34.5229 4.09799 33.9033C3.47838 33.2837 3.16805 32.5379 3.16699 31.666V25.3327H6.33366V31.666H12.667V34.8327H6.33366ZM3.16699 12.666V6.33268C3.16699 5.46185 3.47733 4.71663 4.09799 4.09702C4.71866 3.4774 5.46388 3.16707 6.33366 3.16602H12.667V6.33268H6.33366V12.666H3.16699ZM25.3337 34.8327V31.666H31.667V25.3327H34.8337V31.666C34.8337 32.5368 34.5239 33.2826 33.9042 33.9033C33.2846 34.5239 32.5389 34.8337 31.667 34.8327H25.3337ZM31.667 12.666V6.33268H25.3337V3.16602H31.667C32.5378 3.16602 33.2836 3.47635 33.9042 4.09702C34.5249 4.71768 34.8347 5.4629 34.8337 6.33268V12.666H31.667ZM19.0003 18.9993C17.6545 18.9993 16.5266 18.5444 15.6167 17.6345C14.7069 16.7246 14.2514 15.5962 14.2503 14.2493C14.2503 12.9299 14.7058 11.8084 15.6167 10.8848C16.5277 9.96115 17.6555 9.49935 19.0003 9.49935C20.3198 9.49935 21.4413 9.96115 22.3649 10.8848C23.2885 11.8084 23.7503 12.9299 23.7503 14.2493C23.7503 15.5952 23.2885 16.7236 22.3649 17.6345C21.4413 18.5455 20.3198 19.0004 19.0003 18.9993ZM9.50033 28.4993V25.491C9.50033 24.9369 9.63913 24.4159 9.91674 23.9283C10.1944 23.4406 10.5701 23.0511 11.0441 22.7598C12.258 22.0473 13.5315 21.5063 14.8647 21.1369C16.1978 20.7674 17.5764 20.5827 19.0003 20.5827C20.4243 20.5827 21.8034 20.7674 23.1376 21.1369C24.4718 21.5063 25.7448 22.0473 26.9566 22.7598C27.4316 23.05 27.8079 23.4395 28.0855 23.9283C28.3631 24.417 28.5014 24.9379 28.5003 25.491V28.4993H9.50033Z" fill="#D4734A"/>
</svg>
