<svg width="38" height="38" viewBox="0 0 38 38" fill="none" xmlns="http://www.w3.org/2000/svg">
<path d="M14.25 18.9495V7.91602C14.25 6.65624 14.7504 5.44806 15.6412 4.55726C16.532 3.66646 17.7402 3.16602 19 3.16602C20.2598 3.16602 21.468 3.66646 22.3588 4.55726C23.2496 5.44806 23.75 6.65624 23.75 7.91602V9.5041M23.75 19.0017V30.0827C23.75 31.3425 23.2496 32.5506 22.3588 33.4414C21.468 34.3322 20.2598 34.8327 19 34.8327C17.7402 34.8327 16.532 34.3322 15.6412 33.4414C14.7504 32.5506 14.25 31.3425 14.25 30.0827V28.4756" stroke="#D4734A" stroke-width="2" stroke-linecap="round"/>
<path d="M19.0003 23.75H7.90433C5.28866 23.75 3.16699 21.6236 3.16699 19C3.16699 16.3764 5.28866 14.25 7.90433 14.25H9.49162M19.0003 14.25H30.0749C31.3358 14.249 32.5455 14.7488 33.4379 15.6396C34.3304 16.5303 34.8324 17.7391 34.8337 19C34.8337 21.6236 32.7033 23.75 30.0749 23.75H28.5526" stroke="#D4734A" stroke-width="2" stroke-linecap="round"/>
</svg>
