<svg width="38" height="38" viewBox="0 0 38 38" fill="none" xmlns="http://www.w3.org/2000/svg">
<g clip-path="url(#clip0_4169_2048)">
<path d="M36.1 17.4781H34.238C33.1873 17.4781 32.338 18.1602 32.338 19C32.338 19.8379 33.1873 20.5181 34.238 20.5181H36.1C37.1488 20.5181 38 19.8398 38 19C38 18.1621 37.1469 17.4781 36.1 17.4781ZM19 8.55C17.6265 8.54573 16.2657 8.81312 14.9959 9.33677C13.7261 9.86042 12.5724 10.63 11.6012 11.6012C10.63 12.5724 9.86042 13.7261 9.33677 14.9959C8.81312 16.2657 8.54573 17.6265 8.55 19C8.55 24.7969 13.2031 29.45 19 29.45C24.795 29.45 29.45 24.7969 29.45 19C29.45 13.2031 24.7931 8.55 19 8.55ZM19 26.6C14.7991 26.6 11.4 23.1971 11.4 19C11.4 14.7991 14.7991 11.4 19 11.4C21.0156 11.4 22.9487 12.2007 24.374 13.626C25.7993 15.0513 26.6 16.9844 26.6 19C26.6 21.0156 25.7993 22.9487 24.374 24.374C22.9487 25.7993 21.0156 26.6 19 26.6ZM5.7 19C5.7 18.1621 4.8469 17.4781 3.8 17.4781H1.9C0.8493 17.4781 0 18.1602 0 19C0 19.8379 0.8493 20.5181 1.9 20.5181H3.8C4.8469 20.5181 5.7 19.8379 5.7 19ZM19 5.7C19.8379 5.7 20.5181 4.8507 20.5181 3.8V1.9C20.5181 0.8493 19.8379 0 19 0C18.1621 0 17.4781 0.8493 17.4781 1.9V3.8C17.4781 4.8507 18.1602 5.7 19 5.7ZM19 32.3C18.1602 32.3 17.4781 33.1493 17.4781 34.2V36.1C17.4781 37.1507 18.1602 38 19 38C19.8379 38 20.5181 37.1507 20.5181 36.1V34.2C20.5181 33.1493 19.8379 32.3 19 32.3ZM32.9935 7.1554C33.7364 6.4125 33.8561 5.3295 33.2633 4.7367C32.6705 4.1439 31.5856 4.2655 30.8465 5.0084L29.5165 6.3365C28.7736 7.0794 28.6539 8.1624 29.2467 8.7552C29.8395 9.348 30.9244 9.2264 31.6654 8.4835L32.9935 7.1554ZM6.3346 29.5127L5.0046 30.8446C4.2617 31.5875 4.142 32.6667 4.7348 33.2595C5.3276 33.8523 6.4125 33.7345 7.1516 32.9916L8.4816 31.6635C9.2245 30.9206 9.3442 29.8376 8.7514 29.2429C8.1586 28.6482 7.0737 28.7736 6.3346 29.5127ZM7.1535 5.0065C6.4125 4.2636 5.3276 4.142 4.7348 4.7348C4.142 5.3276 4.2636 6.4125 5.0027 7.1554L6.3327 8.4835C7.0756 9.2264 8.1567 9.348 8.7495 8.7552C9.3423 8.1624 9.2226 7.0775 8.4816 6.3365L7.1535 5.0065ZM29.5146 31.6654L30.8446 32.9935C31.5875 33.7364 32.6686 33.8542 33.2614 33.2652C33.8542 32.6724 33.7345 31.5875 32.9916 30.8465L31.6635 29.5184C30.9206 28.7755 29.8376 28.6539 29.2429 29.2467C28.6482 29.8395 28.7717 30.9225 29.5146 31.6654Z" fill="#D4734A"/>
</g>
<defs>
<clipPath id="clip0_4169_2048">
<rect width="38" height="38" fill="white"/>
</clipPath>
</defs>
</svg>
