<svg width="38" height="38" viewBox="0 0 38 38" fill="none" xmlns="http://www.w3.org/2000/svg">
<path d="M3.16699 5.54102H34.8337M3.16699 18.2077H11.8753M3.16699 30.8743H11.8753" stroke="#D4734A" stroke-width="3" stroke-linecap="round"/>
<path d="M24.9382 26.9154C26.7228 26.9154 28.4344 26.2064 29.6964 24.9444C30.9584 23.6825 31.6673 21.9709 31.6673 20.1862C31.6673 18.4015 30.9584 16.6899 29.6964 15.428C28.4344 14.166 26.7228 13.457 24.9382 13.457C23.1535 13.457 21.4419 14.166 20.1799 15.428C18.9179 16.6899 18.209 18.4015 18.209 20.1862C18.209 21.9709 18.9179 23.6825 20.1799 24.9444C21.4419 26.2064 23.1535 26.9154 24.9382 26.9154Z" stroke="#D4734A" stroke-width="3"/>
<path d="M29.292 25.332L34.8337 30.9133" stroke="#D4734A" stroke-width="3" stroke-linecap="round"/>
</svg>
