<svg width="20" height="16" viewBox="0 0 20 16" fill="none" xmlns="http://www.w3.org/2000/svg">
<path d="M2 16C1.45 16 0.979333 15.8043 0.588 15.413C0.196667 15.0217 0.000666667 14.5507 0 14V2C0 1.45 0.196 0.979333 0.588 0.588C0.98 0.196666 1.45067 0.000666667 2 0H18C18.55 0 19.021 0.196 19.413 0.588C19.805 0.98 20.0007 1.45067 20 2V14C20 14.55 19.8043 15.021 19.413 15.413C19.0217 15.805 18.5507 16.0007 18 16H2ZM10.263 8.788C10.3543 8.76267 10.4417 8.725 10.525 8.675L17.6 4.25C17.7333 4.16667 17.8333 4.06267 17.9 3.938C17.9667 3.81333 18 3.67567 18 3.525C18 3.19167 17.8583 2.94167 17.575 2.775C17.2917 2.60833 17 2.61667 16.7 2.8L10 7L3.3 2.8C3 2.61667 2.70833 2.61267 2.425 2.788C2.14167 2.96333 2 3.209 2 3.525C2 3.69167 2.03333 3.83767 2.1 3.963C2.16667 4.08833 2.26667 4.184 2.4 4.25L9.475 8.675C9.55833 8.725 9.646 8.76267 9.738 8.788C9.83 8.81333 9.91733 8.82567 10 8.825C10.0827 8.82433 10.1703 8.812 10.263 8.788Z" fill="black"/>
</svg>
