<svg width="60" height="60" viewBox="0 0 60 60" fill="none" xmlns="http://www.w3.org/2000/svg">
<path fill-rule="evenodd" clip-rule="evenodd" d="M29.9587 0C41.1939 0 50.5562 9.36241 50.5562 20.5976C50.5562 24.2644 49.2958 27.8806 47.5344 31.1571C45.7661 34.4463 43.4252 37.5174 41.0996 40.132C38.7696 42.7517 36.4153 44.9573 34.581 46.5156C33.6648 47.2938 32.8629 47.9239 32.2446 48.37C31.9392 48.5903 31.6532 48.784 31.4062 48.9323C31.2861 49.0043 31.1396 49.0874 30.9839 49.1594C30.9063 49.195 30.7948 49.243 30.6618 49.2854C30.5571 49.3189 30.2955 49.3973 29.9587 49.3973C29.619 49.3973 29.3553 49.3176 29.2503 49.2837C29.1165 49.2404 29.0046 49.192 28.9269 49.156C28.7709 49.0831 28.6243 48.9996 28.5042 48.9267C28.2573 48.7771 27.9714 48.5817 27.6663 48.3597C27.0484 47.9106 26.2468 47.2763 25.3311 46.4929C23.4977 44.9251 21.1445 42.7081 18.8156 40.0814C16.4913 37.4599 14.1516 34.386 12.3839 31.1045C10.6237 27.8371 9.36115 24.2356 9.36115 20.5976C9.36115 9.36241 18.7236 0 29.9587 0ZM29.9587 26.7491C26.5613 26.7491 23.8071 23.995 23.8071 20.5976C23.8071 17.2002 26.5613 14.446 29.9587 14.446C33.3561 14.446 36.1103 17.2002 36.1103 20.5976C36.1103 23.995 33.3561 26.7491 29.9587 26.7491ZM43.2409 43.5306C44.0316 42.6417 44.8228 41.7104 45.5994 40.7429H51.3555C52.2126 40.7429 52.9875 41.2537 53.3252 42.0416L59.7439 57.0194C60.0276 57.6816 59.9599 58.4419 59.5635 59.0431C59.1671 59.6444 58.4946 60.0061 57.7746 60.0061H2.14286C1.42256 60.0061 0.750438 59.6444 0.353919 59.0431C-0.0426031 58.4419 -0.110475 57.6816 0.173269 57.0194L6.59228 42.0416C6.92995 41.2537 7.70468 40.7429 8.56191 40.7429H14.3705C15.1293 41.6878 15.9018 42.5985 16.6737 43.4689C19.5088 46.6669 22.374 49.3664 24.6046 51.2736C25.7189 52.2267 26.6904 52.9951 27.4343 53.536C27.8025 53.8039 28.1405 54.0344 28.4266 54.2076C28.5664 54.2924 28.7294 54.385 28.8984 54.4639C28.9825 54.5033 29.1001 54.5539 29.2386 54.5984C29.3483 54.634 29.6158 54.7146 29.9585 54.7146C30.2982 54.7146 30.5637 54.6353 30.673 54.6006C30.8109 54.5564 30.928 54.5063 31.012 54.4673C31.1807 54.3893 31.3435 54.2976 31.4833 54.2136C31.7695 54.0417 32.1077 53.8129 32.476 53.5471C33.2204 53.0101 34.1922 52.2473 35.307 51.3001C37.5385 49.4046 40.4049 46.7191 43.2409 43.5306Z" fill="#D4734A"/>
</svg>
