<svg width="90" height="58" viewBox="0 0 90 58" fill="none" xmlns="http://www.w3.org/2000/svg">
<g clip-path="url(#clip0_3887_4129)">
<path d="M7.5 35.3043C8.54167 35.3043 9.27083 34.8841 9.6875 34.0435C10.1042 33.2029 10.1042 32.3623 9.6875 31.5217C9.27083 30.6812 8.54167 30.2609 7.5 30.2609C6.45833 30.2609 5.72917 30.6812 5.3125 31.5217C4.89583 32.3623 4.89583 33.2029 5.3125 34.0435C5.72917 34.8841 6.45833 35.3043 7.5 35.3043ZM65.0391 33.019C64.7786 32.6775 64.2773 32.0208 63.5352 31.0489C62.793 30.077 62.2526 29.3678 61.9141 28.9212C61.5755 28.4746 61.0807 27.8311 60.4297 26.9905C59.7786 26.1499 59.2253 25.4538 58.7695 24.9022C58.3138 24.3505 57.7865 23.7332 57.1875 23.0503C56.5885 22.3673 56.0026 21.7237 55.4297 21.1196L50.5469 26.6359C48.3854 29.1051 45.6706 30.3134 42.4023 30.2609C39.1341 30.2083 36.4583 28.9212 34.375 26.3995C32.8906 24.587 32.1549 22.5118 32.168 20.1739C32.181 17.8361 32.9427 15.774 34.4531 13.9878L41.3672 5.87092C40.7943 5.58197 40.1302 5.36526 39.375 5.22079C38.6198 5.07631 38.0013 4.99751 37.5195 4.98437C37.0378 4.97124 36.3021 4.97781 35.3125 5.00408C34.3229 5.03034 33.6849 5.04348 33.3984 5.04348C31.0026 5.04348 28.9453 5.91033 27.2266 7.64402L21.0547 13.8696H15V35.3043C15.1302 35.3043 15.4036 35.2978 15.8203 35.2846C16.237 35.2715 16.5234 35.2715 16.6797 35.2846C16.8359 35.2978 17.0898 35.324 17.4414 35.3634C17.793 35.4029 18.0599 35.462 18.2422 35.5408C18.4245 35.6196 18.6523 35.7312 18.9258 35.8757C19.1992 36.0202 19.4401 36.1975 19.6484 36.4076L31.25 47.913C34.2448 50.8288 37.2005 52.2867 40.1172 52.2867C42.1484 52.2867 43.776 51.6694 45 50.4348C46.4844 50.9601 47.9492 50.8551 49.3945 50.1196C50.8398 49.3841 51.7839 48.2677 52.2266 46.7704C54.1536 46.928 55.8073 46.3501 57.1875 45.0367C57.7083 44.5639 58.1771 43.9663 58.5938 43.2439C59.0104 42.5215 59.1927 41.8582 59.1406 41.2541C59.401 41.5168 59.9609 41.6481 60.8203 41.6481C61.9401 41.6481 62.9427 41.3723 63.8281 40.8207C64.7135 40.269 65.3581 39.5729 65.7617 38.7323C66.1654 37.8918 66.3216 36.9527 66.2305 35.9151C66.1393 34.8775 65.7422 33.9121 65.0391 33.019ZM71.25 35.3043H75V15.1304H71.3672L65.2344 8.03804C63.5156 6.04167 61.3151 5.04348 58.6328 5.04348H52.1094C49.7917 5.04348 47.8906 5.92346 46.4062 7.68342L38.2422 17.2582C37.513 18.125 37.1484 19.1101 37.1484 20.2133C37.1484 21.3166 37.5 22.3016 38.2031 23.1685C39.3229 24.5082 40.7552 25.1911 42.5 25.2174C44.2448 25.2437 45.6901 24.6001 46.8359 23.2867L54.375 14.697C55.026 14.0928 55.7227 13.8105 56.4648 13.8499C57.207 13.8893 57.819 14.2439 58.3008 14.9137C58.7826 15.5836 58.8932 16.3256 58.6328 17.1399C59.0495 17.639 59.7786 18.4665 60.8203 19.6223C61.862 20.7781 62.6432 21.6712 63.1641 22.3016C63.9193 23.2473 64.9935 24.6329 66.3867 26.4586C67.7799 28.2842 68.6198 29.394 68.9062 29.788C70.2604 31.5217 71.0417 33.3605 71.25 35.3043ZM82.5 35.3043C83.5417 35.3043 84.2708 34.8841 84.6875 34.0435C85.1042 33.2029 85.1042 32.3623 84.6875 31.5217C84.2708 30.6812 83.5417 30.2609 82.5 30.2609C81.4583 30.2609 80.7292 30.6812 80.3125 31.5217C79.8958 32.3623 79.8958 33.2029 80.3125 34.0435C80.7292 34.8841 81.4583 35.3043 82.5 35.3043ZM90 12.6087V37.8261C90 38.5091 89.7526 39.1001 89.2578 39.5992C88.763 40.0983 88.1771 40.3478 87.5 40.3478H70.5469C69.8438 42.0553 68.776 43.454 67.3438 44.5442C65.9115 45.6343 64.2839 46.3107 62.4609 46.5734C61.6016 47.8342 60.5534 48.9047 59.3164 49.7846C58.0794 50.6646 56.7448 51.2622 55.3125 51.5774C54.2188 52.9697 52.8581 54.0401 51.2305 54.7887C49.6029 55.5374 47.9297 55.8591 46.2109 55.7541C44.6484 56.6472 43.0078 57.166 41.2891 57.3105C39.5703 57.4549 37.9102 57.2711 36.3086 56.7588C34.707 56.2466 33.1836 55.5439 31.7383 54.6508C30.293 53.7577 28.9453 52.6938 27.6953 51.4592L16.4844 40.3478H2.5C1.82292 40.3478 1.23698 40.0983 0.742188 39.5992C0.247396 39.1001 0 38.5091 0 37.8261V11.3478C0 10.6649 0.247396 10.0738 0.742188 9.57473C1.23698 9.07563 1.82292 8.82609 2.5 8.82609H18.9453C19.3099 8.45833 19.9219 7.8279 20.7812 6.93478C21.6406 6.04167 22.2591 5.41123 22.6367 5.04348C23.0143 4.67572 23.5872 4.15036 24.3555 3.46739C25.1237 2.78442 25.7812 2.29189 26.3281 1.98981C26.875 1.68773 27.5391 1.35281 28.3203 0.985054C29.1016 0.617301 29.9089 0.361187 30.7422 0.216712C31.5755 0.0722373 32.4609 0 33.3984 0H37.9688C40.5469 0 42.9036 0.735507 45.0391 2.20652C47.1745 0.735507 49.5312 0 52.1094 0H58.6328C59.5443 0 60.4167 0.0788043 61.25 0.236413C62.0833 0.394022 62.819 0.584466 63.457 0.807745C64.0951 1.03102 64.7656 1.37908 65.4688 1.8519C66.1719 2.32473 66.7513 2.73188 67.207 3.07337C67.6628 3.41486 68.2227 3.93365 68.8867 4.62976C69.5508 5.32586 70.0586 5.87749 70.4102 6.28465C70.7617 6.6918 71.2956 7.32224 72.0117 8.17595C72.7279 9.02966 73.2682 9.66667 73.6328 10.087H87.5C88.1771 10.087 88.763 10.3365 89.2578 10.8356C89.7526 11.3347 90 11.9257 90 12.6087Z" fill="#F6F6F6"/>
</g>
<defs>
<clipPath id="clip0_3887_4129">
<rect width="90" height="58" fill="white"/>
</clipPath>
</defs>
</svg>
