<svg width="90" height="90" viewBox="0 0 90 90" fill="none" xmlns="http://www.w3.org/2000/svg">
<path d="M45 82.5V45M60 63.75L67.5 71.25L82.5 56.25" stroke="#F6F6F6" stroke-width="5" stroke-linecap="round" stroke-linejoin="round"/>
<path d="M78.75 41.7264V30.0001C78.7487 28.6849 78.4015 27.3932 77.7433 26.2545C77.0851 25.1158 76.139 24.1702 75 23.5126L48.75 8.51262C47.6099 7.85436 46.3165 7.50781 45 7.50781C43.6835 7.50781 42.3901 7.85436 41.25 8.51262L15 23.5126C13.861 24.1702 12.9149 25.1158 12.2567 26.2545C11.5985 27.3932 11.2513 28.6849 11.25 30.0001V60.0001C11.252 61.3147 11.5995 62.6057 12.2577 63.7436C12.9158 64.8816 13.8615 65.8266 15 66.4839L41.25 81.4839C42.3898 82.1427 43.683 82.4899 44.9995 82.4906C46.316 82.4912 47.6095 82.1453 48.75 81.4876L53.7 78.6639" stroke="#F6F6F6" stroke-width="5" stroke-linecap="round" stroke-linejoin="round"/>
<path d="M12.3375 26.2492L45 44.9992L77.6625 26.2492M28.125 16.0117L61.8638 35.3167" stroke="#F6F6F6" stroke-width="5" stroke-linecap="round" stroke-linejoin="round"/>
</svg>
