<svg width="90" height="90" viewBox="0 0 90 90" fill="none" xmlns="http://www.w3.org/2000/svg">
<g clip-path="url(#clip0_3887_4166)">
<path d="M15 66.0742C15.8687 66.0743 16.7024 65.7317 17.3202 65.121C17.938 64.5102 18.2901 63.6804 18.3 62.8117V51.5617C18.3 50.6865 17.9523 49.8471 17.3334 49.2283C16.7145 48.6094 15.8752 48.2617 15 48.2617C14.1247 48.2617 13.2854 48.6094 12.6665 49.2283C12.0476 49.8471 11.7 50.6865 11.7 51.5617V62.8117C11.7098 63.6804 12.0619 64.5102 12.6797 65.121C13.2975 65.7317 14.1312 66.0743 15 66.0742ZM37.05 51.5617C37.0401 50.693 36.688 49.8633 36.0702 49.2525C35.4524 48.6417 34.6187 48.2992 33.75 48.2992H31.425C31.3018 48.2942 31.1789 48.3135 31.0632 48.356C30.9476 48.3986 30.8414 48.4635 30.7508 48.5471C30.6603 48.6307 30.5871 48.7313 30.5355 48.8432C30.4838 48.9551 30.4548 49.0761 30.45 49.1992V53.9242C30.4548 54.0474 30.4838 54.1684 30.5355 54.2803C30.5871 54.3922 30.6603 54.4928 30.7508 54.5764C30.8414 54.66 30.9476 54.7249 31.0632 54.7674C31.1789 54.8099 31.3018 54.8292 31.425 54.8242H33.75C34.6187 54.8243 35.4524 54.4818 36.0702 53.871C36.688 53.2602 37.0401 52.4304 37.05 51.5617Z" fill="#F6F6F6"/>
<path d="M90 42.1881C90 40.9569 89.7575 39.7378 89.2864 38.6004C88.8152 37.463 88.1247 36.4295 87.2541 35.5589C86.3836 34.6884 85.3501 33.9978 84.2127 33.5267C83.0752 33.0556 81.8561 32.8131 80.625 32.8131H65.625C65.4614 32.8103 65.3008 32.768 65.1571 32.6896C65.0134 32.6112 64.8909 32.4992 64.8 32.3631L53.85 13.6131C52.9392 12.0656 51.6402 10.7827 50.0814 9.8914C48.5226 9.0001 46.7581 8.53125 44.9625 8.53125C43.1669 8.53125 41.4024 9.0001 39.8436 9.8914C38.2848 10.7827 36.9858 12.0656 36.075 13.6131L25.125 32.3631C25.0341 32.4992 24.9116 32.6112 24.7679 32.6896C24.6242 32.768 24.4636 32.8103 24.3 32.8131H9.3C6.82661 32.8329 4.46127 33.8293 2.7193 35.5853C0.977339 37.3413 -7.91473e-05 39.7146 4.80698e-09 42.1881V72.1881C4.80698e-09 73.4192 0.242492 74.6383 0.713629 75.7757C1.18477 76.9132 1.87532 77.9466 2.74587 78.8172C3.61642 79.6878 4.64992 80.3783 5.78734 80.8494C6.92477 81.3206 8.14386 81.5631 9.375 81.5631H80.625C81.8561 81.5631 83.0752 81.3206 84.2127 80.8494C85.3501 80.3783 86.3836 79.6878 87.2541 78.8172C88.1247 77.9466 88.8152 76.9132 89.2864 75.7757C89.7575 74.6383 90 73.4192 90 72.1881V42.1881ZM54.375 54.8256C55.0016 54.8256 55.6025 55.0745 56.0455 55.5175C56.4886 55.9606 56.7375 56.5615 56.7375 57.1881C56.7375 57.8146 56.4886 58.4156 56.0455 58.8586C55.6025 59.3017 55.0016 59.5506 54.375 59.5506H50.175C50.0519 59.5455 49.9289 59.5648 49.8133 59.6074C49.6976 59.6499 49.5914 59.7148 49.5009 59.7984C49.4103 59.882 49.3372 59.9826 49.2855 60.0945C49.2339 60.2064 49.2048 60.3274 49.2 60.4506V64.6881C49.1999 64.8735 49.237 65.057 49.3091 65.2279C49.3811 65.3987 49.4867 65.5533 49.6196 65.6827C49.7524 65.812 49.9098 65.9134 50.0825 65.9809C50.2552 66.0484 50.4397 66.0806 50.625 66.0756H58.125C58.7516 66.0756 59.3525 66.3245 59.7955 66.7675C60.2386 67.2106 60.4875 67.8115 60.4875 68.4381C60.4875 69.0646 60.2386 69.6656 59.7955 70.1086C59.3525 70.5517 58.7516 70.8006 58.125 70.8006H50.625C49.8241 70.8006 49.031 70.6422 48.2915 70.3346C47.552 70.0269 46.8806 69.5761 46.316 69.008C45.7514 68.4399 45.3047 67.7658 45.0016 67.0244C44.6985 66.283 44.5451 65.489 44.55 64.6881V49.6881C44.5451 48.8871 44.6985 48.0931 45.0016 47.3518C45.3047 46.6104 45.7514 45.9362 46.316 45.3681C46.8806 44.8 47.552 44.3492 48.2915 44.0416C49.031 43.7339 49.8241 43.5756 50.625 43.5756H58.125C58.7516 43.5756 59.3525 43.8245 59.7955 44.2675C60.2386 44.7106 60.4875 45.3115 60.4875 45.9381C60.4875 46.5646 60.2386 47.1656 59.7955 47.6086C59.3525 48.0517 58.7516 48.3006 58.125 48.3006H50.625C50.4397 48.2956 50.2552 48.3277 50.0825 48.3952C49.9098 48.4627 49.7524 48.5641 49.6196 48.6935C49.4867 48.8228 49.3811 48.9775 49.3091 49.1483C49.237 49.3191 49.1999 49.5027 49.2 49.6881V53.9256C49.2048 54.0487 49.2339 54.1697 49.2855 54.2816C49.3372 54.3935 49.4103 54.4941 49.5009 54.5777C49.5914 54.6613 49.6976 54.7262 49.8133 54.7688C49.9289 54.8113 50.0519 54.8306 50.175 54.8256H54.375ZM25.8 45.9381C25.7999 45.3179 26.0437 44.7226 26.4786 44.2807C26.9136 43.8387 27.5049 43.5854 28.125 43.5756H33.75C35.8684 43.5756 37.9001 44.4171 39.398 45.9151C40.896 47.413 41.7375 49.4447 41.7375 51.5631C41.7375 53.6815 40.896 55.7131 39.398 57.2111C37.9001 58.709 35.8684 59.5506 33.75 59.5506H31.425C31.3019 59.5455 31.1789 59.5648 31.0633 59.6074C30.9476 59.6499 30.8415 59.7148 30.7509 59.7984C30.6603 59.882 30.5871 59.9826 30.5355 60.0945C30.4839 60.2064 30.4548 60.3274 30.45 60.4506V68.4381C30.45 69.0547 30.205 69.6461 29.769 70.0821C29.333 70.5181 28.7416 70.7631 28.125 70.7631C27.5084 70.7631 26.917 70.5181 26.481 70.0821C26.045 69.6461 25.8 69.0547 25.8 68.4381V45.9381ZM63.3 45.9381C63.2949 45.4088 63.4705 44.8937 63.7977 44.4778C64.125 44.0619 64.5844 43.7701 65.1 43.6506C65.6129 43.5354 66.1495 43.5946 66.6249 43.8188C67.1003 44.0429 67.4875 44.4192 67.725 44.8881L72.75 54.9756C72.85 55.1583 73.0059 55.3043 73.1948 55.392C73.3838 55.4798 73.5959 55.5047 73.8 55.4631C74.0117 55.4129 74.2005 55.2933 74.3364 55.1234C74.4723 54.9536 74.5475 54.7431 74.55 54.5256V45.9381C74.55 45.3214 74.795 44.7301 75.231 44.294C75.667 43.858 76.2584 43.6131 76.875 43.6131C77.4916 43.6131 78.083 43.858 78.519 44.294C78.955 44.7301 79.2 45.3214 79.2 45.9381V68.4381C79.2051 68.9673 79.0295 69.4824 78.7023 69.8984C78.375 70.3143 77.9156 70.6061 77.4 70.7256H76.875C76.4396 70.7144 76.0152 70.5867 75.6459 70.3559C75.2766 70.1251 74.9759 69.7995 74.775 69.4131L69.75 59.4006C69.65 59.2178 69.4941 59.0718 69.3052 58.9841C69.1162 58.8964 68.9041 58.8715 68.7 58.9131C68.4883 58.9633 68.2995 59.0828 68.1636 59.2527C68.0277 59.4226 67.9525 59.633 67.95 59.8506V68.4381C67.95 68.7434 67.8899 69.0457 67.773 69.3278C67.6562 69.6099 67.4849 69.8662 67.269 70.0821C67.0531 70.298 66.7968 70.4693 66.5147 70.5861C66.2327 70.7029 65.9303 70.7631 65.625 70.7631C65.3197 70.7631 65.0173 70.7029 64.7353 70.5861C64.4532 70.4693 64.1969 70.298 63.981 70.0821C63.7651 69.8662 63.5938 69.6099 63.477 69.3278C63.3601 69.0457 63.3 68.7434 63.3 68.4381V45.9381ZM7.05 51.5631C7.05 50.5191 7.25563 49.4853 7.65516 48.5207C8.05468 47.5562 8.64028 46.6798 9.3785 45.9416C10.1167 45.2033 10.9931 44.6178 11.9577 44.2182C12.9222 43.8187 13.956 43.6131 15 43.6131C16.044 43.6131 17.0778 43.8187 18.0423 44.2182C19.0069 44.6178 19.8833 45.2033 20.6215 45.9416C21.3597 46.6798 21.9453 47.5562 22.3448 48.5207C22.7444 49.4853 22.95 50.5191 22.95 51.5631V62.8131C22.95 63.8571 22.7444 64.8909 22.3448 65.8554C21.9453 66.8199 21.3597 67.6963 20.6215 68.4346C19.8833 69.1728 19.0069 69.7584 18.0423 70.1579C17.0778 70.5574 16.044 70.7631 15 70.7631C13.956 70.7631 12.9222 70.5574 11.9577 70.1579C10.9931 69.7584 10.1167 69.1728 9.3785 68.4346C8.64028 67.6963 8.05468 66.8199 7.65516 65.8554C7.25563 64.8909 7.05 63.8571 7.05 62.8131V51.5631ZM42.6 17.3256C42.8639 16.9311 43.2209 16.6078 43.6395 16.3842C44.0581 16.1606 44.5254 16.0436 45 16.0436C45.4746 16.0436 45.9419 16.1606 46.3605 16.3842C46.7791 16.6078 47.1361 16.9311 47.4 17.3256L55.6125 31.3881C55.7029 31.5277 55.751 31.6905 55.751 31.8568C55.751 32.0232 55.7029 32.1859 55.6125 32.3256C55.5412 32.4733 55.4292 32.5976 55.2897 32.684C55.1503 32.7703 54.989 32.8151 54.825 32.8131H35.175C35.011 32.8151 34.8497 32.7703 34.7103 32.684C34.5708 32.5976 34.4588 32.4733 34.3875 32.3256C34.2971 32.1859 34.249 32.0232 34.249 31.8568C34.249 31.6905 34.2971 31.5277 34.3875 31.3881L42.6 17.3256Z" fill="#F6F6F6"/>
</g>
<defs>
<clipPath id="clip0_3887_4166">
<rect width="90" height="90" fill="white"/>
</clipPath>
</defs>
</svg>
