<svg width="90" height="90" viewBox="0 0 90 90" fill="none" xmlns="http://www.w3.org/2000/svg">
<path d="M52.5 78.75H60M52.5 78.75C51.0082 78.75 49.5774 78.1574 48.5225 77.1025C47.4676 76.0476 46.875 74.6168 46.875 73.125V63.75H45M52.5 78.75H37.5M45 63.75H43.125V73.125C43.125 74.6168 42.5324 76.0476 41.4775 77.1025C40.4226 78.1574 38.9918 78.75 37.5 78.75M45 63.75V78.75M37.5 78.75H30M60 11.25H30C19.395 11.25 14.0887 11.25 10.7962 14.5462C7.5 17.8387 7.5 23.145 7.5 33.75V41.25C7.5 51.855 7.5 57.1613 10.7962 60.4538C14.0887 63.75 19.395 63.75 30 63.75H60C70.605 63.75 75.9113 63.75 79.2038 60.4538C82.5 57.1613 82.5 51.855 82.5 41.25V33.75C82.5 23.145 82.5 17.8387 79.2038 14.5462C75.9113 11.25 70.605 11.25 60 11.25Z" stroke="#F6F6F6" stroke-width="5" stroke-linecap="round" stroke-linejoin="round"/>
<path d="M45 39.375C46.9891 39.375 48.8968 38.5848 50.3033 37.1783C51.7098 35.7718 52.5 33.8641 52.5 31.875C52.5 29.8859 51.7098 27.9782 50.3033 26.5717C48.8968 25.1652 46.9891 24.375 45 24.375C43.0109 24.375 41.1032 25.1652 39.6967 26.5717C38.2902 27.9782 37.5 29.8859 37.5 31.875C37.5 33.8641 38.2902 35.7718 39.6967 37.1783C41.1032 38.5848 43.0109 39.375 45 39.375ZM45 39.375C42.0163 39.375 39.1548 40.5603 37.045 42.67C34.9353 44.7798 33.75 47.6413 33.75 50.625M45 39.375C47.9837 39.375 50.8452 40.5603 52.955 42.67C55.0647 44.7798 56.25 47.6413 56.25 50.625" stroke="#F6F6F6" stroke-width="5" stroke-linecap="round" stroke-linejoin="round"/>
</svg>
