<svg width="80" height="80" viewBox="0 0 80 80" fill="none" xmlns="http://www.w3.org/2000/svg">
<g clip-path="url(#clip0_3887_4137)">
<path d="M15 75H31.0938L29.8438 80H10V5H15V0H20V5H30V0H35V5H45V0H50V5H60V0H65V5H70V30.3125C69.1146 30.4427 68.2552 30.6641 67.4219 30.9766C66.5885 31.2891 65.7812 31.6927 65 32.1875V10H15V75ZM72.1875 35C73.2812 35 74.2969 35.1953 75.2344 35.5859C76.1719 35.9766 77.0052 36.5104 77.7344 37.1875C78.4635 37.8646 79.0104 38.6849 79.375 39.6484C79.7396 40.612 79.9479 41.6406 80 42.7344C80 43.75 79.8047 44.7396 79.4141 45.7031C79.0234 46.6667 78.4635 47.513 77.7344 48.2422L49.7266 76.25L35 79.9219L38.6719 65.1953L66.6797 37.2266C67.4349 36.4714 68.2812 35.9115 69.2188 35.5469C70.1562 35.1823 71.1458 35 72.1875 35ZM74.1797 44.7266C74.7266 44.1797 75 43.5156 75 42.7344C75 41.9271 74.7396 41.276 74.2188 40.7812C73.6979 40.2865 73.0208 40.026 72.1875 40C71.8229 40 71.4714 40.0521 71.1328 40.1562C70.7943 40.2604 70.4948 40.4557 70.2344 40.7422L43.2031 67.7734L41.875 73.0469L47.1484 71.7188L74.1797 44.7266Z" fill="#F6F6F6"/>
</g>
<defs>
<clipPath id="clip0_3887_4137">
<rect width="80" height="80" fill="white"/>
</clipPath>
</defs>
</svg>
