<svg width="100" height="100" viewBox="0 0 100 100" fill="none" xmlns="http://www.w3.org/2000/svg">
<path d="M77.9999 61.5006C79.4582 57.9589 80.2499 54.1672 80.2499 50.0006C80.2499 47.0006 79.7916 44.1256 78.9999 41.4589C76.2916 42.0839 73.4583 42.4172 70.4999 42.4172C64.4415 42.4237 58.4702 40.9736 53.0896 38.189C47.709 35.4044 43.0767 31.367 39.5833 26.4172C35.8497 35.462 28.7987 42.7366 19.8749 46.7506C19.7083 47.7922 19.7083 48.9172 19.7083 50.0006C19.7083 53.9785 20.4918 57.9175 22.0141 61.5927C23.5364 65.2678 25.7676 68.6072 28.5805 71.42C34.2613 77.1008 41.9661 80.2922 49.9999 80.2922C54.3749 80.2922 58.5833 79.3339 62.3749 77.6255C64.7499 82.1672 65.8332 84.4172 65.7499 84.4172C58.9166 86.7089 53.6249 87.8339 49.9999 87.8339C39.9166 87.8339 30.2916 83.8756 23.2083 76.7506C18.896 72.4586 15.6927 67.1818 13.8749 61.3756H8.33325V42.4172H12.8749C14.2509 35.7194 17.4145 29.5189 22.0299 24.4738C26.6453 19.4288 32.5404 15.7272 39.0896 13.762C45.6389 11.7968 52.598 11.6413 59.2285 13.3118C65.859 14.9824 71.9137 18.4168 76.7499 23.2506C81.999 28.4821 85.5803 35.1517 87.0416 42.4172H91.6666V61.3756H91.4166L76.5832 75.0006L54.4999 72.5006V65.5422H74.6249L77.9999 61.5006ZM38.6249 49.0422C39.8749 49.0422 41.0832 49.5422 41.9582 50.4589C42.8376 51.3454 43.331 52.5435 43.331 53.7922C43.331 55.0409 42.8376 56.239 41.9582 57.1256C41.0832 58.0006 39.8749 58.5006 38.6249 58.5006C35.9999 58.5006 33.8749 56.4172 33.8749 53.7922C33.8749 51.1672 35.9999 49.0422 38.6249 49.0422ZM61.3333 49.0422C63.9583 49.0422 66.0416 51.1672 66.0416 53.7922C66.0416 56.4172 63.9583 58.5006 61.3333 58.5006C58.7083 58.5006 56.5832 56.4172 56.5832 53.7922C56.5832 52.5324 57.0837 51.3243 57.9745 50.4335C58.8653 49.5427 60.0735 49.0422 61.3333 49.0422Z" fill="#F6F6F6"/>
</svg>
