<svg width="90" height="90" viewBox="0 0 90 90" fill="none" xmlns="http://www.w3.org/2000/svg">
<path fill-rule="evenodd" clip-rule="evenodd" d="M64.455 4.0412C69.2633 3.07303 74.1692 2.67653 79.0706 2.85995C80.2028 2.90395 81.2767 3.37341 82.0779 4.17458C82.8791 4.97575 83.3485 6.04965 83.3925 7.18183C83.505 9.83683 83.5181 15.43 82.2113 21.7975C81.4425 25.5531 76.9256 26.5712 74.4356 24.0793L70.8413 20.4868C69.4415 21.7531 68.0582 23.0376 66.6919 24.34C63.1463 27.7168 58.6988 32.1812 54.9469 36.6381C51.7556 40.4293 45.6338 40.4031 42.6375 36.2068C40.7428 33.5464 38.7746 30.9391 36.735 28.3881C32.5463 31.255 23.85 37.8531 14.0738 49.0318C13.4663 49.7256 12.8563 50.4368 12.2438 51.1656C11.603 51.9264 10.6863 52.4016 9.69519 52.4865C8.70412 52.5714 7.7199 52.2591 6.95906 51.6184C6.19822 50.9776 5.72308 50.0609 5.63816 49.0698C5.55324 48.0788 5.8655 47.0945 6.50625 46.3337C7.15125 45.5712 7.79125 44.8256 8.42625 44.0968C18.9075 32.1118 28.2769 25.0618 32.7881 22.0018C35.9438 19.8625 40.0838 20.5993 42.3994 23.4643C44.5928 26.197 46.7068 28.9926 48.7388 31.8475C48.7524 31.8646 48.7689 31.8792 48.7875 31.8906C48.8308 31.9091 48.8773 31.9193 48.9244 31.9206C48.9773 31.9242 49.0303 31.916 49.0796 31.8965C49.1289 31.8771 49.1732 31.8469 49.2094 31.8081C53.2144 27.0512 57.8831 22.3731 61.5169 18.91C63.0788 17.4231 64.4606 16.1481 65.5313 15.1787L62.175 11.815C59.6831 9.32495 60.7013 4.80995 64.4569 4.03933M63.3094 80.1081C63.0619 76.7143 62.8144 70.66 62.8144 59.9987C62.8144 49.3375 63.0619 43.285 63.3094 39.8875C63.5831 36.1187 66.3356 33.1787 70.2506 32.9387C71.4956 32.8637 73.0575 32.8112 75.0019 32.8112C76.9463 32.8112 78.5081 32.8637 79.7531 32.9387C83.6681 33.1787 86.4206 36.1187 86.6944 39.8875C86.9419 43.285 87.1894 49.3375 87.1894 59.9987C87.1894 70.66 86.9419 76.7124 86.6944 80.1099C86.4206 83.8787 83.6681 86.8187 79.7531 87.0587C78.5081 87.1337 76.9463 87.1862 75.0019 87.1862C73.0575 87.1862 71.4956 87.1337 70.2506 87.0587C66.3356 86.8187 63.5831 83.8768 63.3094 80.1081ZM3.13125 81.1318C2.94937 79.3618 2.8125 76.8118 2.8125 73.1256C2.8125 69.4393 2.94938 66.8893 3.12938 65.1193C3.50625 61.3881 6.50063 59.2487 9.78 59.1381C11.5195 59.0842 13.2597 59.0592 15 59.0631C17.2256 59.0631 18.9319 59.095 20.22 59.1381C23.4994 59.2487 26.4938 61.3881 26.8706 65.1193C27.0506 66.8893 27.1875 69.4393 27.1875 73.1256C27.1875 76.8118 27.0506 79.3618 26.8725 81.1318C26.4938 84.8631 23.4975 87.0024 20.22 87.1131C18.9319 87.1562 17.2256 87.1881 15 87.1881C12.7744 87.1881 11.0681 87.1562 9.78 87.1131C6.50063 87.0024 3.50813 84.8631 3.13125 81.1318ZM32.8125 67.5006C32.8125 73.8962 32.9981 77.9331 33.2119 80.4699C33.5344 84.31 36.4744 86.9331 40.1869 87.0962C41.4319 87.1506 43.0106 87.1881 45 87.1881C46.9894 87.1881 48.5681 87.1506 49.8131 87.0943C53.5256 86.9331 56.4656 84.31 56.7881 80.4699C57.0019 77.9331 57.1875 73.8962 57.1875 67.5006C57.1875 61.1049 57.0019 57.0681 56.79 54.5312C56.4656 50.6912 53.5275 48.0681 49.8131 47.905C48.5681 47.8506 46.9894 47.8131 45 47.8131C43.0106 47.8131 41.4319 47.8506 40.1888 47.9068C36.4744 48.0681 33.5325 50.6912 33.21 54.5312C33 57.0681 32.8125 61.1049 32.8125 67.5006Z" fill="#D4734A"/>
</svg>
