<svg width="120" height="120" viewBox="0 0 120 120" fill="none" xmlns="http://www.w3.org/2000/svg">
<path fill-rule="evenodd" clip-rule="evenodd" d="M85.94 5.38697C92.3511 4.09607 98.8923 3.5674 105.428 3.81197C106.937 3.87063 108.369 4.49657 109.437 5.5648C110.505 6.63303 111.131 8.0649 111.19 9.57447C111.34 13.1145 111.358 20.572 109.615 29.062C108.59 34.0695 102.568 35.427 99.2475 32.1045L94.455 27.3145C92.5886 29.0029 90.7443 30.7155 88.9225 32.452C84.195 36.9545 78.265 42.907 73.2625 48.8495C69.0075 53.9045 60.845 53.8695 56.85 48.2745C54.3238 44.7272 51.6994 41.2509 48.98 37.8495C43.395 41.672 31.8 50.4695 18.765 65.3745C17.955 66.2995 17.1417 67.2478 16.325 68.2195C15.4707 69.2339 14.2483 69.8674 12.9269 69.9807C11.6055 70.0939 10.2932 69.6775 9.27875 68.8232C8.2643 67.9689 7.63077 66.7466 7.51755 65.4251C7.40432 64.1037 7.82067 62.7914 8.675 61.777C9.535 60.7603 10.3883 59.7661 11.235 58.7945C25.21 42.8145 37.7025 33.4145 43.7175 29.3345C47.925 26.482 53.445 27.4645 56.5325 31.2845C59.4571 34.9281 62.2758 38.6555 64.985 42.462C65.0032 42.4848 65.0252 42.5042 65.05 42.5195C65.1078 42.5441 65.1697 42.5577 65.2325 42.5595C65.303 42.5643 65.3737 42.5534 65.4395 42.5274C65.5052 42.5015 65.5643 42.4612 65.6125 42.4095C70.9525 36.067 77.1775 29.8295 82.0225 25.212C84.105 23.2295 85.9475 21.5295 87.375 20.237L82.9 15.752C79.5775 12.432 80.935 6.41197 85.9425 5.38447M84.4125 106.809C84.0825 102.284 83.7525 94.212 83.7525 79.997C83.7525 65.782 84.0825 57.712 84.4125 53.182C84.7775 48.157 88.4475 44.237 93.6675 43.917C95.3275 43.817 97.41 43.747 100.003 43.747C102.595 43.747 104.678 43.817 106.338 43.917C111.558 44.237 115.228 48.157 115.593 53.182C115.923 57.712 116.253 65.782 116.253 79.997C116.253 94.212 115.923 102.282 115.593 106.812C115.228 111.837 111.558 115.757 106.338 116.077C104.678 116.177 102.595 116.247 100.003 116.247C97.41 116.247 95.3275 116.177 93.6675 116.077C88.4475 115.757 84.7775 111.834 84.4125 106.809ZM4.175 108.174C3.9325 105.814 3.75 102.414 3.75 97.4995C3.75 92.5845 3.9325 89.1845 4.1725 86.8245C4.675 81.8495 8.6675 78.997 13.04 78.8495C15.3593 78.7777 17.6796 78.7443 20 78.7495C22.9675 78.7495 25.2425 78.792 26.96 78.8495C31.3325 78.997 35.325 81.8495 35.8275 86.8245C36.0675 89.1845 36.25 92.5845 36.25 97.4995C36.25 102.414 36.0675 105.814 35.83 108.174C35.325 113.149 31.33 116.002 26.96 116.149C25.2425 116.207 22.9675 116.249 20 116.249C17.0325 116.249 14.7575 116.207 13.04 116.149C8.6675 116.002 4.6775 113.149 4.175 108.174ZM43.75 89.9995C43.75 98.527 43.9975 103.909 44.2825 107.292C44.7125 112.412 48.6325 115.909 53.5825 116.127C55.2425 116.199 57.3475 116.249 60 116.249C62.6525 116.249 64.7575 116.199 66.4175 116.124C71.3675 115.909 75.2875 112.412 75.7175 107.292C76.0025 103.909 76.25 98.527 76.25 89.9995C76.25 81.472 76.0025 76.0895 75.72 72.707C75.2875 67.587 71.37 64.0895 66.4175 63.872C64.7575 63.7995 62.6525 63.7495 60 63.7495C57.3475 63.7495 55.2425 63.7995 53.585 63.8745C48.6325 64.0895 44.71 67.587 44.28 72.707C44 76.0895 43.75 81.472 43.75 89.9995Z" fill="#D4734A"/>
</svg>
