<svg width="64" height="60" viewBox="0 0 64 60" fill="none" xmlns="http://www.w3.org/2000/svg">
<path d="M34.2739 53.286C33.3966 53.5026 32.6414 54.0588 32.1742 54.8322C31.9429 55.2152 31.7893 55.64 31.7222 56.0823C31.655 56.5246 31.6757 56.9758 31.7829 57.4102C31.8902 57.8446 32.0819 58.2535 32.3472 58.6138C32.6126 58.974 32.9462 59.2785 33.3292 59.5098C34.1027 59.9769 35.03 60.1177 35.9073 59.9011C41.1468 58.5404 45.8905 55.7159 49.5834 51.758C53.2763 47.8 55.7658 42.8723 56.7605 37.5514C56.7835 37.4035 56.8547 37.2673 56.963 37.164C57.0713 37.0606 57.2106 36.9959 57.3594 36.9797L61.9601 36.5714C62.2109 36.5528 62.4513 36.4637 62.6536 36.3143C62.8559 36.165 63.0119 35.9616 63.1035 35.7275C63.1957 35.4916 63.2215 35.235 63.1784 34.9855C63.1352 34.736 63.0246 34.5031 62.8585 34.3119L54.147 24.5118C54.0024 24.3567 53.8241 24.2368 53.6259 24.1613C53.4277 24.0858 53.2148 24.0567 53.0036 24.0762C52.7935 24.0895 52.5897 24.1534 52.4096 24.2624C52.2295 24.3714 52.0784 24.5224 51.9691 24.7023L45.1633 35.8908C45.0384 36.0958 44.97 36.3301 44.965 36.5701C44.9599 36.81 45.0184 37.047 45.1345 37.2571C45.2506 37.4671 45.4201 37.6428 45.626 37.7662C45.8318 37.8895 46.0667 37.9563 46.3067 37.9597L48.7295 37.7419C48.8397 37.733 48.9504 37.751 49.052 37.7944C49.1536 37.8378 49.2432 37.9053 49.3129 37.9911C49.3825 38.0769 49.4303 38.1783 49.452 38.2867C49.4737 38.395 49.4687 38.5071 49.4373 38.6131C48.379 42.1531 46.4286 45.3618 43.7733 47.9312C41.118 50.5006 37.8469 52.3445 34.2739 53.286Z" fill="#D4734A"/>
<path d="M21.29 4.77429C21.168 4.78823 21.0446 4.76754 20.9339 4.71458C20.8231 4.66162 20.7295 4.57853 20.6639 4.47484L18.1593 0.554798C18.0127 0.359571 17.8173 0.206442 17.5926 0.110854C17.368 0.0152658 17.1221 -0.0194016 16.8798 0.0103477C16.6269 0.0343966 16.3858 0.12873 16.1837 0.282677C15.9817 0.436624 15.8267 0.644043 15.7364 0.881469L10.8634 12.8322C10.7758 13.0197 10.7305 13.2241 10.7305 13.4311C10.7305 13.638 10.7758 13.8424 10.8634 14.0299C10.9675 14.2166 11.1168 14.3742 11.2975 14.4883C11.4782 14.6024 11.6846 14.6695 11.8979 14.6833L24.9652 15.99C25.2042 15.9832 25.4374 15.9148 25.6422 15.7915C25.8471 15.6681 26.0166 15.494 26.1343 15.2858C26.2521 15.0777 26.3141 14.8427 26.3143 14.6036C26.3146 14.3645 26.2531 14.1294 26.1358 13.9211L24.8835 11.8521C24.8311 11.7561 24.8036 11.6485 24.8036 11.5391C24.8036 11.4297 24.8311 11.322 24.8835 11.226C24.9382 11.1171 25.0249 11.0275 25.1319 10.9691C25.2389 10.9107 25.3612 10.8864 25.4824 10.8994C29.1406 10.2924 32.8936 10.6429 36.3762 11.9166C39.8587 13.1903 42.9522 15.3439 45.3555 18.1678C45.685 18.567 46.1019 18.8851 46.5739 19.0976C47.046 19.31 47.5606 19.411 48.0779 19.3928C48.8858 19.3866 49.6659 19.0976 50.283 18.5761C50.6427 18.2809 50.9381 17.915 51.1508 17.5011C51.3635 17.0871 51.4891 16.634 51.5197 16.1696C51.5503 15.7053 51.4853 15.2396 51.3288 14.8013C51.1723 14.363 50.9275 13.9615 50.6097 13.6216C47.0773 9.50158 42.4391 6.47901 37.2435 4.91119C32.0478 3.34338 26.5118 3.29587 21.29 4.77429Z" fill="#D4734A"/>
<path d="M5.85452 21.1087C5.01668 20.8295 4.1028 20.8897 3.30888 21.2765C2.51496 21.6633 1.90422 22.3458 1.60766 23.1776C-0.194591 28.3217 -0.488404 33.8738 0.76086 39.1794C2.01012 44.485 4.75038 49.3228 8.65854 53.1224C8.73695 53.2391 8.77883 53.3765 8.77883 53.5171C8.77883 53.6577 8.73695 53.7951 8.65854 53.9118L6.48066 57.9135C6.36709 58.1211 6.30958 58.3547 6.31382 58.5912C6.31805 58.8278 6.38387 59.0591 6.50479 59.2625C6.62572 59.4659 6.79756 59.6342 7.00338 59.7509C7.2092 59.8676 7.44189 59.9286 7.67849 59.928C7.67849 59.928 7.05235 59.9008 20.6641 57.9135C20.8908 57.8859 21.1078 57.8049 21.2971 57.6771C21.4864 57.5494 21.6426 57.3785 21.753 57.1785C21.8467 56.9879 21.8954 56.7784 21.8954 56.566C21.8954 56.3536 21.8467 56.1441 21.753 55.9535L16.3083 44.1389C16.2071 43.9294 16.0539 43.7493 15.8632 43.6159C15.6726 43.4824 15.4509 43.4001 15.2194 43.3767C14.9688 43.3646 14.72 43.4249 14.5028 43.5505C14.2855 43.676 14.109 43.8614 13.9943 44.0845L12.7693 46.2895C12.716 46.3842 12.6417 46.4654 12.552 46.5268C12.4623 46.5882 12.3596 46.6281 12.252 46.6434C12.1296 46.6437 12.0093 46.611 11.9039 46.5487C11.7985 46.4865 11.7119 46.3969 11.6531 46.2895C9.30339 43.4156 7.72733 39.9887 7.07457 36.3344C6.42182 32.68 6.71404 28.9195 7.9235 25.4098C8.21935 24.5651 8.16758 23.6375 7.7796 22.8309C7.39161 22.0243 6.69916 21.4048 5.85452 21.1087Z" fill="#D4734A"/>
</svg>
